<?xml version="1.0" encoding="utf-8"?>
<!-- Generator: Adobe Illustrator 16.0.0, SVG Export Plug-In . SVG Version: 6.00 Build 0)  -->
<!DOCTYPE svg PUBLIC "-//W3C//DTD SVG 1.1//EN" "http://www.w3.org/Graphics/SVG/1.1/DTD/svg11.dtd">
<svg version="1.1" id="Layer_1" xmlns="http://www.w3.org/2000/svg" xmlns:xlink="http://www.w3.org/1999/xlink" x="0px" y="0px"
	 width="590px" height="165px" viewBox="28.83 27.434 590 165" enable-background="new 28.83 27.434 590 165" xml:space="preserve">
<g id="Specs_-_do_not_print" display="none">
	
		<rect x="33.534" y="34.434" display="inline" fill="none" stroke="#D3D3D3" stroke-width="0.5" stroke-miterlimit="10" stroke-dasharray="3" width="378.387" height="152.998"/>
	
		<rect x="258.921" y="34.519" display="inline" fill="none" stroke="#E52622" stroke-width="0.75" stroke-miterlimit="10" stroke-dasharray="3" width="187.292" height="152.829"/>
	
		<line display="inline" fill="none" stroke="#D3D3D3" stroke-width="0.5" stroke-miterlimit="10" stroke-dasharray="3" x1="186.521" y1="187.21" x2="186.521" y2="34.207"/>
</g>
<g id="Guides_-_do_not_print" display="none">
</g>
<g id="ART">
	<g>
		<polygon points="101.285,80.043 146.852,158.969 186.449,158.969 130.982,62.898 		"/>
		<polygon points="67.326,112.714 94.031,158.969 133.627,158.969 97.023,95.569 		"/>
		<polygon points="33.449,145.451 41.254,158.969 80.85,158.969 63.146,128.305 		"/>
		<rect x="220.812" y="34.433" width="3.818" height="153"/>
	</g>
	<g>
		<path fill="#FFFFFF" d="M580.129,129.503l-0.011-3.882l-0.008-3.174c0.992,1.793,2.419,3.322,4.248,4.531
			c3.214,2.123,7.599,3.194,13.03,3.181c5.244-0.013,9.259-0.989,12.271-2.983c3.327-2.191,5.312-6.173,5.3-10.646
			c-0.008-2.756-0.729-5.144-2.12-7.088l1.607-0.004l-0.01-3.882l-0.001-0.291c-0.011-4.42-1.813-8.013-5.209-10.39
			c-2.965-2.075-7.136-3.171-12.398-3.258l-0.038-0.001h-0.037l-9.801,0.029L525.546,91.8h0.001
			c-4.571-4.108-10.62-6.603-17.25-6.586c-8.419,0.021-15.883,4.085-20.559,10.35c-3.731-3.219-7.932-3.647-11.238-3.638
			c-0.024-0.025-20.308,0.051-20.308,0.051l0.003,1.1c-2.698-1.203-5.979-1.807-9.779-1.798c-3.97,0.01-7.435,0.691-10.313,2.025
			l-0.076-1.276c0.12,0.119-46.103,0.117-46.103,0.117l-0.176,3.688c-0.025,0.552-0.052,1.096-0.076,1.628l-0.713-2.491
			l-0.808-2.821c0.112,0-76.611,0.193-76.611,0.193l-0.004-1.756l-3.528,0.009l-9.704,0.025l-0.777,0.002l-0.705,0.328l-8.709,4.059
			l-0.002-0.834l-0.009-3.529l-3.529,0.009l-9.703,0.025l-0.777,0.002l-0.705,0.328l-11.322,5.276l-2.695,1.257l0.781,2.87
			l2.125,7.801l1.06,3.89l3.715-1.564l2.447-1.03l0.049,19.21l0.009,3.529l3.529-0.009l11.594-0.029l3.529-0.009l-0.01-3.529
			l-0.044-17.211l2.331-0.981l2.447-1.03l0.049,19.21l0.009,3.529l3.529-0.01l11.594-0.029l3.529-0.008l-0.009-3.529l-0.053-20.77
			l3.315-0.008l0.047,18.46l0.01,3.883l3.883-0.01l12.679-0.033l3.154-0.008l0,0l3.883-0.01l33.589-0.085l3.082-0.008l0.69-3.004
			l0.389-1.687l1.106-0.003l0.319,1.57l0.634,3.115l3.18-0.008l21.283-0.055l3.355-0.009l1.595-0.005l10.665-0.025l3.006-0.007
			l0.001-0.002l1.84-0.005l10.701-0.025l4.078-0.01l-0.038-0.729c2.98,1.108,6.124,1.428,8.782,1.42
			c3.765-0.01,6.896-0.515,9.479-1.537l0.002,0.797l3.883-0.008l12.368-0.03l3.884-0.009l-0.011-3.883l-0.014-5.711
			c3.06-0.215,5.52-0.697,7.447-1.451c3.308,10.418,13.069,17.957,24.581,17.928c6.808-0.018,12.986-2.684,17.576-7.014
			C526.004,129.641,580.339,129.502,580.129,129.503z"/>
		<path d="M606.714,109.237c-1.235-0.638-3.935-1.379-8.094-2.222c-2.884-0.597-4.324-1.48-4.327-2.664
			c-0.003-0.682,0.237-1.257,0.726-1.732c0.484-0.47,1.087-0.707,1.797-0.708c0.84-0.002,1.484,0.409,1.938,1.232
			c0.359,0.626,0.537,1.383,0.539,2.259l0.006,0.194l11.258-0.03l-0.001-0.291c-0.017-6.364-4.862-9.628-13.79-9.776l-9.8,0.029
			l-57.921,0.146c3.142,4.249,5.009,9.499,5.023,15.189c0.014,5.546-1.737,10.681-4.716,14.887l11.812-0.029l-0.026-10.609
			l0.413-0.002c1.274-0.043,2.142,0.383,2.596,1.266c0.278,1.044,0.465,1.965,0.563,2.755c0.31,2.479,0.727,4.632,1.295,6.578
			l12.239-0.03c-0.551-1.859-0.972-4.201-1.268-7.145c-0.253-2.51-0.656-4.272-1.206-5.286c-0.814-1.538-2.257-2.501-4.333-2.883
			c3.489-0.79,5.293-3.105,5.447-6.908l6.617-0.017l0.056,22.224l12.677-0.032l-0.056-22.224l6.407-0.016
			c-0.056,0.413-0.091,0.84-0.089,1.284c0.009,3.095,1.434,5.315,4.275,6.659c0.714,0.337,3.358,1.046,7.931,2.123
			c2.843,0.672,4.264,1.744,4.267,3.214c0.002,0.603-0.204,1.144-0.62,1.624c-0.417,0.479-0.923,0.721-1.512,0.723
			c-1.168,0.004-1.942-0.492-2.331-1.49c-0.247-0.616-0.347-1.647-0.325-2.957l-11.879,0.035l0.078,2.107
			c0.509,5.962,5.471,9.588,14.995,9.564c4.42-0.012,7.799-0.789,10.141-2.338c2.342-1.543,3.565-4.45,3.559-7.399
			C611.07,113.157,609.612,110.723,606.714,109.237z M542.111,107.852l-1.479,0.004l-0.015-5.365l1.565-0.004
			c2.193-0.006,3.294,0.843,3.298,2.549C545.484,106.908,544.363,107.846,542.111,107.852z"/>
		<path d="M311.356,96.224l0.02,7.737l7.391-0.019l0.056,22.342l12.679-0.033l-0.057-22.341l7.037-0.018l0.056,22.34l33.589-0.084
			l1.08-4.69l7.369-0.019l0.953,4.686l21.283-0.055c0.302-6.518,0.485-12.262,0.513-17.176l4.438,17.165l10.665-0.026
			c1.767-6.899,3.131-12.634,4.122-17.31c0.288,5.567,0.528,11.295,0.725,17.295l10.701-0.025c-0.085-1.655-0.167-3.208-0.248-4.76
			c2.16,3.144,6.143,5.459,13.07,5.442c4.417-0.011,7.796-0.789,10.14-2.338c1.199-0.79,2.627-2.506,3.21-3.665l0.013,5.253
			l12.369-0.03l-0.023-9.47c4.874-0.012,8.393-0.547,10.559-1.589c0.029-0.014,0.055-0.031,0.082-0.047
			c-0.185-1.229-0.285-2.486-0.288-3.766c-0.011-4.323,1.056-8.396,2.942-11.971c-2.55-2.531-5.443-3.256-9.29-3.247l-16.427,0.042
			l0.019,6.955c-1.243-4.672-5.705-7.663-13.676-7.643c-3.69,0.009-6.769,0.654-9.235,1.932c-2.271,1.165-3.834,3.422-4.445,5.462
			c-0.137-2.527-0.26-4.684-0.377-6.636l-15.959,0.039c-1.517,7.021-2.624,12.634-3.299,16.923
			c-1.476-7.906-2.559-13.436-3.325-16.904l-16.162,0.041c-0.556,11.7-0.955,19.964-1.223,25.101l-7.177-25.08l-16.376,0.041
			l-6.331,22.093l-11.857,0.03l-0.008-3.068l10.848-0.027l-0.021-8.259l-10.848,0.027l-0.008-2.946l11.32-0.029l-0.02-7.804
			L311.356,96.224z M374.771,113.867l2.158-10.09l2.103,10.079L374.771,113.867z M448.257,118.607
			c-0.417,0.479-0.922,0.722-1.511,0.724c-1.166,0.003-1.942-0.493-2.328-1.487c-0.25-0.617-0.364-1.58-0.338-2.893l-10.677,0.027
			c-0.126-2.418-0.245-4.687-0.355-6.802c0.676,1.485,1.885,2.646,3.633,3.47c0.713,0.34,3.355,1.049,7.929,2.123
			c2.843,0.672,4.264,1.746,4.269,3.215C448.881,117.586,448.673,118.129,448.257,118.607z M460.129,112.979
			c-0.716-1.438-1.871-2.589-3.508-3.429c-1.235-0.635-3.934-1.378-8.095-2.216c-2.882-0.6-4.327-1.486-4.33-2.668
			c-0.002-0.678,0.24-1.257,0.729-1.731c0.486-0.47,1.085-0.708,1.799-0.71c0.838-0.002,1.483,0.409,1.936,1.234
			c0.36,0.624,0.542,1.382,0.544,2.259l0.001,0.254l10.907-0.028L460.129,112.979z M472.759,108.894l-0.476-0.039l-0.016-6.344
			c1.826-0.102,2.693,0.121,3.107,0.384c0.678,0.431,1.226,1.333,1.201,2.747C476.538,107.805,475.308,108.888,472.759,108.894z"/>
		<path fill="#B51B2D" d="M529.918,110.879c-0.03-11.898-9.698-21.521-21.594-21.491c-11.898,0.03-21.521,9.702-21.491,21.6
			c0.02,8.024,4.429,15.006,10.945,18.698l-0.05-19.628h-0.104l-6.602,2.96l-1.513-6.915l9.539-4.254l7.636-0.019l0.077,30.579
			c0.554,0.041,1.105,0.069,1.67,0.067c0.446-0.002,0.892-0.021,1.333-0.051l-0.077-30.604l7.64-0.02l9.56,4.206l-1.481,6.923
			l-6.611-2.929h-0.104l0.05,19.817C525.42,126.15,529.939,119.039,529.918,110.879"/>
		<g>
			<polygon fill="#B51B2D" points="286.989,99.424 298.31,94.148 308.015,94.123 308.102,128.62 296.508,128.648 296.446,104.2 
				296.3,104.201 289.114,107.225 			"/>
			<polygon fill="#B51B2D" points="263.553,99.483 274.874,94.207 284.579,94.183 284.666,128.68 273.072,128.709 273.01,104.259 
				272.864,104.26 265.678,107.284 			"/>
		</g>
	</g>
</g>
</svg>
