<svg width="61" height="61" viewBox="0 0 61 61" fill="none" xmlns="http://www.w3.org/2000/svg">
<g id="Layer_1">
<path id="Vector" d="M18.2988 58.9501V58.3778C18.2988 57.1259 18.3068 55.8741 18.2921 54.6227C18.2892 54.3689 18.3653 54.3121 18.6024 54.3281C18.9421 54.3509 19.2844 54.3437 19.6254 54.334C19.789 54.3294 19.8344 54.3833 19.834 54.5453C19.8289 56.5831 19.8285 58.6214 19.8348 60.6593C19.8352 60.8436 19.7721 60.8836 19.6031 60.8806C19.0969 60.8714 18.5898 60.8672 18.0835 60.8823C17.8905 60.8882 17.793 60.8184 17.6992 60.6568C16.844 59.1857 15.9795 57.7201 15.1104 56.2402C15.0217 56.3231 15.0616 56.4203 15.0616 56.5019C15.0583 57.8573 15.0545 59.2122 15.0642 60.5676C15.0658 60.7952 15.0305 60.9008 14.7686 60.8802C14.4297 60.8541 14.0866 60.868 13.7456 60.8764C13.5942 60.8802 13.5269 60.8491 13.5273 60.6749C13.5332 58.6265 13.5332 56.5781 13.5273 54.5297C13.5269 54.3559 13.595 54.3252 13.7464 54.3269C14.2632 54.3336 14.7803 54.3387 15.2967 54.3248C15.48 54.3197 15.5679 54.3929 15.6545 54.5419C16.4643 55.933 17.2813 57.3199 18.0966 58.7081C18.1462 58.7927 18.1962 58.8773 18.2463 58.9614C18.2635 58.9576 18.2807 58.9543 18.298 58.9505L18.2988 58.9501Z" fill="#666666"/>
<path id="Vector_2" d="M4.08158 57.5707C4.06182 57.5669 4.04248 57.5593 3.96301 57.5366C4.16063 57.4718 4.29854 57.4327 4.43183 57.383C4.78082 57.2513 5.07052 57.0561 5.2097 56.6837C5.64993 55.5042 4.99652 54.4531 3.75067 54.3487C3.57533 54.3344 3.39958 54.3306 3.22382 54.3302C2.24245 54.3285 1.26107 54.339 0.280121 54.3226C0.0316238 54.3188 -0.00201371 54.4072 8.86335e-05 54.6243C0.0101799 55.7819 0.00429332 56.9399 0.00429332 58.0975C0.00429332 58.9454 0.00471379 59.7933 0.00387285 60.6408C0.00387285 60.7683 -0.0146278 60.8819 0.182572 60.8802C1.40151 60.8684 2.62087 60.8894 3.83897 60.8516C4.43772 60.8322 5.02595 60.6222 5.23619 59.9999C5.61587 58.873 5.50655 57.8084 4.082 57.5711L4.08158 57.5707ZM1.56003 55.6014C1.55961 55.4747 1.61847 55.444 1.73032 55.4461C1.95695 55.4499 2.18358 55.4474 2.41064 55.4474V55.4579C2.63727 55.4579 2.86516 55.4449 3.09095 55.4604C3.47358 55.4874 3.67625 55.7049 3.71073 56.0996C3.75992 56.6487 3.61402 56.9475 3.21625 57.0283C2.70833 57.1314 2.18863 57.0527 1.67524 57.0716C1.57853 57.0754 1.55666 57.0152 1.55666 56.9324C1.55961 56.4884 1.56339 56.0445 1.56045 55.6014H1.56003ZM2.9358 59.7685C2.77056 59.7701 2.60531 59.7685 2.39087 59.7685C2.15625 59.7369 1.77657 59.8972 1.61301 59.7037C1.47257 59.5383 1.55877 59.1714 1.56507 58.8941C1.57054 58.6285 1.44566 58.2768 1.62352 58.1232C1.77405 57.9932 2.11505 58.0815 2.37195 58.079C2.61961 58.0765 2.86895 58.0689 3.11618 58.0853C3.55725 58.1143 3.74226 58.2936 3.81248 58.7287C3.92685 59.4419 3.65859 59.7605 2.93538 59.768L2.9358 59.7685Z" fill="#666666"/>
<path id="Vector_3" d="M26.8448 56.0996C26.6614 55.1726 26.1005 54.6008 25.1625 54.4278C24.9098 54.3811 24.6499 54.3495 24.3934 54.347C23.4007 54.3352 22.4088 54.3453 21.4161 54.3315C21.2067 54.3285 21.1588 54.3929 21.1609 54.5919C21.171 55.5951 21.1651 56.5991 21.1651 57.6027H21.1625C21.1625 58.6058 21.1626 59.6094 21.163 60.6126C21.163 60.7392 21.1171 60.8823 21.3442 60.8798C22.4395 60.8654 23.5369 60.9021 24.6302 60.8486C25.9601 60.7826 26.6291 60.1636 26.8759 58.844C27.0466 57.9309 27.0243 57.0093 26.8443 56.0992L26.8448 56.0996ZM25.173 58.8213C25.0519 59.3477 24.7134 59.6039 24.1727 59.622C23.78 59.6351 23.3868 59.6237 22.9941 59.6376C22.8272 59.6439 22.7843 59.5829 22.7868 59.4243C22.7944 58.8137 22.7898 58.2027 22.7898 57.5921C22.7898 56.9816 22.7973 56.4123 22.7856 55.8223C22.7814 55.6334 22.8301 55.5711 23.0252 55.5799C23.4074 55.5968 23.7905 55.5774 24.1727 55.5905C24.7176 55.609 25.0536 55.864 25.1738 56.3904C25.3584 57.1974 25.3576 58.0142 25.1726 58.8208L25.173 58.8213Z" fill="#666666"/>
<path id="Vector_4" d="M53.4859 55.8299C52.6841 55.5846 51.9062 55.4411 51.1019 55.5113C50.2513 55.5858 49.8518 55.9363 49.7181 56.7825C49.621 57.3977 49.626 58.0205 49.7593 58.6336C49.8968 59.2681 50.2462 59.5875 50.8883 59.699C51.2907 59.7689 51.6901 59.7403 52.0925 59.6999C52.2334 59.6856 52.2586 59.6304 52.2565 59.5067C52.2502 59.1448 52.2468 58.7825 52.2573 58.4207C52.2624 58.254 52.2018 58.2061 52.0425 58.2128C51.7847 58.2237 51.5249 58.204 51.2675 58.2195C51.0842 58.2305 51.0401 58.1602 51.0497 57.9915C51.0661 57.7036 50.9568 57.3283 51.0998 57.1495C51.2503 56.9618 51.6413 57.0931 51.9268 57.0872C52.402 57.0775 52.8779 57.0897 53.3531 57.0784C53.5309 57.0741 53.6053 57.1053 53.6032 57.3106C53.5919 58.3554 53.5974 59.4003 53.599 60.4451C53.599 60.5663 53.5936 60.65 53.4401 60.6921C52.3069 61.0018 51.1662 61.1074 50.0124 60.828C49.002 60.5835 48.384 59.9363 48.146 58.9315C47.9408 58.0638 47.9433 57.1903 48.1317 56.3188C48.3806 55.1667 49.1147 54.5052 50.2508 54.2995C51.2612 54.1168 52.2661 54.1795 53.2534 54.4817C53.4275 54.5351 53.5011 54.6121 53.4906 54.8044C53.4725 55.1339 53.4855 55.4651 53.4855 55.8295L53.4859 55.8299Z" fill="#666666"/>
<path id="Vector_5" d="M6.4768 56.7956C6.4768 56.0609 6.48647 55.3262 6.47091 54.592C6.46629 54.366 6.53777 54.3147 6.74926 54.3243C7.12054 54.3416 7.49391 54.3424 7.86519 54.3243C8.07963 54.3138 8.11663 54.3942 8.11579 54.5878C8.10822 55.8914 8.11158 57.195 8.112 58.4986C8.112 58.6433 8.10822 58.7893 8.12377 58.9328C8.16372 59.3014 8.37521 59.5396 8.73514 59.6229C9.07067 59.7007 9.41041 59.7134 9.75015 59.6511C10.3039 59.5497 10.5162 59.3153 10.5276 58.7485C10.541 58.0765 10.5326 57.4037 10.5331 56.7312C10.5335 56.0071 10.5373 55.2829 10.5301 54.5587C10.5284 54.398 10.5511 54.3184 10.742 54.3256C11.1549 54.3407 11.5691 54.3344 11.9824 54.3277C12.1136 54.3256 12.1615 54.3605 12.1607 54.4998C12.1531 56.0205 12.1725 57.5417 12.1401 59.062C12.1212 59.9381 11.6065 60.5554 10.7555 60.7973C9.80144 61.0683 8.83437 61.0691 7.88032 60.7986C7.01374 60.5528 6.53188 59.9372 6.50077 59.0309C6.47512 58.2869 6.49572 57.5417 6.49572 56.7969C6.48941 56.7969 6.48268 56.7969 6.47638 56.7969L6.4768 56.7956Z" fill="#666666"/>
<path id="Vector_6" d="M60.9772 60.7212C60.241 58.6522 59.5014 56.5849 58.7727 54.5133C58.7126 54.3438 58.6217 54.3257 58.4758 54.3269C57.9486 54.3324 57.4205 54.3404 56.8936 54.324C56.6842 54.3172 56.59 54.3787 56.5198 54.5815C56.0918 55.8186 55.649 57.0507 55.2092 58.284C54.9056 59.1369 54.5991 59.9886 54.2842 60.8676C54.7984 60.8676 55.282 60.8634 55.7655 60.8706C55.9009 60.8723 55.9362 60.8033 55.9711 60.6934C56.0766 60.3589 56.204 60.0315 56.3007 59.6949C56.3474 59.5333 56.4256 59.4934 56.5841 59.4955C57.2973 59.5043 58.0104 59.506 58.7239 59.4942C58.8921 59.4917 58.9556 59.5565 58.9997 59.7029C59.0985 60.0286 59.2091 60.3505 59.3197 60.672C59.3508 60.762 59.3546 60.8727 59.5072 60.8702C60 60.8622 60.4932 60.8672 60.9995 60.8672C60.9894 60.8007 60.9902 60.7582 60.9772 60.7212ZM56.7103 58.308C57.0227 57.3402 57.3309 56.3846 57.6614 55.3587C57.9864 56.3917 58.2849 57.341 58.5889 58.308H56.7103Z" fill="#666666"/>
<path id="Vector_7" d="M28.1637 57.6053C28.1637 56.6017 28.1705 55.5981 28.1583 54.5949C28.1558 54.377 28.2138 54.3223 28.4303 54.324C29.7842 54.3345 31.1386 54.3332 32.4929 54.3252C32.6884 54.324 32.7742 54.3639 32.7523 54.5773C32.7187 54.9025 32.889 55.3402 32.6834 55.5257C32.5042 55.6873 32.0754 55.5766 31.7571 55.5783C31.1781 55.5817 30.5991 55.5851 30.0205 55.5758C29.8498 55.5733 29.7821 55.6153 29.7905 55.7984C29.8048 56.1081 29.8036 56.4195 29.7905 56.7292C29.7834 56.9051 29.8389 56.9581 30.0159 56.9556C30.6773 56.9459 31.3391 56.9598 32.0005 56.9467C32.204 56.9425 32.2705 56.9985 32.2553 57.203C32.2372 57.45 32.2385 57.6999 32.2553 57.9474C32.2684 58.1422 32.2019 58.1923 32.0119 58.1889C31.3711 58.1775 30.7299 58.1981 30.0895 58.1779C29.8334 58.1699 29.7737 58.2554 29.7897 58.491C29.809 58.7793 29.8053 59.0704 29.7905 59.3595C29.78 59.5585 29.8359 59.625 30.0466 59.6221C30.8838 59.6095 31.7213 59.6221 32.5585 59.6128C32.7506 59.6107 32.8364 59.6457 32.8192 59.8615C32.7986 60.1186 32.8057 60.3787 32.8175 60.637C32.8251 60.8016 32.7914 60.8701 32.6035 60.8689C31.1978 60.8609 29.7918 60.8592 28.3862 60.8701C28.173 60.8718 28.1604 60.7856 28.1616 60.6168C28.168 59.6132 28.1646 58.6101 28.1646 57.6065L28.1637 57.6053Z" fill="#666666"/>
<path id="Vector_8" d="M38.3346 55.8148C37.8031 55.6473 37.2918 55.5328 36.7654 55.4895C36.4337 55.4622 36.104 55.4584 35.7786 55.5312C35.4321 55.6086 35.2749 55.8101 35.2643 56.1691C35.2547 56.5057 35.3661 56.6791 35.7201 56.7725C36.178 56.8937 36.6447 56.982 37.1077 57.0851C38.2614 57.3431 38.6088 57.7719 38.5995 58.9244C38.5907 60.0046 38.0857 60.6551 37.0522 60.8537C36.0212 61.0519 34.9978 60.9812 33.9874 60.6892C33.8259 60.6425 33.7725 60.5705 33.7792 60.4089C33.7902 60.13 33.791 59.8501 33.7792 59.5711C33.7713 59.3772 33.8284 59.3473 34.0113 59.4037C34.7274 59.6254 35.4624 59.7214 36.2121 59.6827C36.8058 59.6519 37.0509 59.415 37.0425 58.9126C37.0375 58.624 36.9071 58.4388 36.6304 58.3723C36.1898 58.2663 35.7458 58.1724 35.3034 58.074C35.1929 58.0492 35.0806 58.0302 34.9713 58.0012C34.132 57.7799 33.8066 57.3982 33.7149 56.5314C33.5749 55.2084 34.2279 54.3795 35.5511 54.2297C36.4118 54.1325 37.2603 54.2044 38.0941 54.4598C38.2921 54.5204 38.3485 54.6092 38.3392 54.804C38.3241 55.1234 38.335 55.4445 38.335 55.8139L38.3346 55.8148Z" fill="#666666"/>
<path id="Vector_9" d="M39.7433 57.6039C39.7433 56.6012 39.75 55.598 39.7378 54.5953C39.7353 54.3769 39.7925 54.313 40.0103 54.3235C40.3812 54.342 40.7545 54.3407 41.1254 54.3235C41.3318 54.3138 41.3806 54.3803 41.3798 54.581C41.3714 56.1627 41.3806 57.7445 41.3693 59.3262C41.3676 59.5665 41.4252 59.6347 41.6695 59.6288C42.4129 59.6111 43.1571 59.6347 43.9005 59.6153C44.1443 59.609 44.1961 59.6852 44.1797 59.9077C44.157 60.2149 44.2835 60.6328 44.1279 60.8044C43.9492 61.0014 43.5267 60.8621 43.2105 60.8642C42.1463 60.8709 41.0821 60.8579 40.0183 60.8739C39.7748 60.8777 39.7349 60.8028 39.7374 60.581C39.7496 59.5888 39.7429 58.5962 39.7429 57.6035L39.7433 57.6039Z" fill="#666666"/>
<path id="Vector_10" d="M45.2023 57.6032C45.2023 56.5996 45.2098 55.596 45.1964 54.5929C45.1934 54.3686 45.2607 54.3147 45.473 54.3244C45.8548 54.3417 46.2379 54.3345 46.6201 54.3269C46.7681 54.324 46.8396 54.3467 46.8391 54.5247C46.8328 56.5731 46.8328 58.6215 46.8391 60.6699C46.8396 60.842 46.7794 60.8744 46.6256 60.871C46.2227 60.8618 45.8191 60.8584 45.4163 60.8723C45.2338 60.8786 45.1964 60.8159 45.1976 60.6447C45.2056 59.631 45.2014 58.6169 45.2014 57.6032H45.2023Z" fill="#666666"/>
<path id="Vector_11" d="M30.5205 48.7009C20.5091 48.7009 10.4978 48.6992 0.486427 48.7085C0.176542 48.7085 0.102539 48.6395 0.102539 48.326C0.111369 32.3453 0.111369 16.3647 0.102539 0.383562C0.102539 0.0738626 0.171496 -0.0010376 0.485166 -0.0010376C20.5079 0.00779894 40.531 0.00737816 60.5537 -0.0010376C60.8649 -0.0010376 60.9376 0.0700755 60.9376 0.3823C60.9288 16.363 60.9288 32.3436 60.9376 48.3247C60.9376 48.6357 60.867 48.7089 60.555 48.7085C50.5436 48.6992 40.5323 48.7009 30.5209 48.7009H30.5205Z" fill="#666666"/>
<path id="Vector_12" d="M16.4066 33.7193C15.9256 32.5945 15.477 31.5072 15.1692 30.3685C15.1503 30.2987 15.1263 30.2293 15.1179 30.1581C15.0922 29.9389 15.0035 29.8001 14.7538 29.8022C14.5683 29.8038 14.4632 29.697 14.4094 29.5131C13.624 26.8411 13.1127 24.1287 13.193 21.3283C13.1989 21.1226 13.2052 20.9164 13.2796 20.6993C13.0984 20.6597 13.0029 20.8154 12.8499 20.8247C12.7544 20.6256 12.7679 20.4064 12.7826 20.196C12.9727 17.4844 13.4276 14.8242 14.3106 12.2448C14.4329 11.8867 14.6159 11.6447 15.0006 11.5408C15.3252 11.4529 15.6313 11.2947 16.0047 11.144C15.5102 11.0346 15.0628 11.0573 14.623 11.0152C13.8001 10.9366 12.9739 10.8882 12.1502 10.8183C11.9736 10.8032 11.8424 10.8431 11.7049 10.9622C10.3691 12.1211 9.03329 13.2808 7.68022 14.4194C7.37664 14.6748 7.19038 14.9753 7.09493 15.3393C7.01966 15.6254 6.85232 15.8181 6.63283 16.0058C6.03493 16.517 5.37101 16.8613 4.57884 16.9349C4.34885 16.9564 4.12179 16.9496 3.9082 16.8587C3.59116 16.7241 3.56972 16.5271 3.84429 16.321C4.17435 16.0731 4.53932 15.8703 4.8223 15.5619C4.86981 15.5097 4.91186 15.4525 4.96904 15.383C4.84584 15.3203 4.78109 15.4121 4.70919 15.4419C4.4136 15.5652 4.12095 15.6931 3.79467 15.715C3.6391 15.7255 3.53482 15.6793 3.49992 15.5143C3.46502 15.3485 3.5138 15.2311 3.67568 15.1672C3.80981 15.1141 3.9431 15.0578 4.07849 15.0077C4.53638 14.8389 4.91101 14.5692 5.19861 14.1653C5.46519 13.7912 5.82511 13.532 6.2994 13.4895C6.4554 13.4756 6.50123 13.3611 6.57397 13.2686C7.86312 11.6245 9.15354 9.98179 10.5482 8.4232C10.8804 8.05164 11.2639 7.86692 11.7453 7.90016C11.956 7.91489 12.0586 7.84546 12.0691 7.65147C12.0821 7.40447 12.2318 7.35776 12.4395 7.33967C14.3367 7.17514 16.2342 7.0548 18.1385 7.20838C18.747 7.25719 19.3524 7.32873 19.9394 7.50293C20.124 7.55764 20.1883 7.53786 20.1892 7.32031C20.1908 6.81158 20.2758 6.31421 20.4578 5.83367C20.9729 4.47284 22.2726 3.71963 23.7005 3.99777C24.6852 4.18965 25.5182 4.6723 26.1451 5.46674C26.5584 5.99062 26.7514 6.5549 26.4319 7.22059C26.1779 7.74952 26.185 8.32684 26.2704 8.89574C26.3326 9.31232 26.3789 9.69818 25.9012 9.92288C25.802 9.96959 25.7394 10.1059 25.6725 10.209C25.4698 10.5221 25.3218 10.8633 25.1726 11.2042C24.919 11.7828 24.9173 11.7786 24.2723 11.7268C23.9233 11.6986 23.5109 11.5627 23.2409 11.6999C22.968 11.8387 22.9113 12.2919 22.7692 12.6109C21.9926 14.3592 21.3106 16.1409 20.9326 18.0252C20.9183 18.0958 20.9178 18.1712 20.8939 18.2381C20.8186 18.4451 20.8989 18.4931 21.1028 18.5154C23.1884 18.7422 25.2625 19.0544 27.3397 19.3447C27.5032 19.3675 27.6664 19.4083 27.8303 19.4129C28.1373 19.4213 28.3778 19.4941 28.4039 19.8585C28.4127 19.9827 28.5094 19.9881 28.6057 20.0024C30.1324 20.2339 31.6188 20.6113 33.0307 21.2509C33.2367 21.3443 33.4575 21.3136 33.6719 21.3279C34.2576 21.3662 34.853 21.3208 35.4181 21.5358C35.4623 21.5526 35.5417 21.5623 35.5628 21.5383C35.7785 21.2934 35.9992 21.4609 36.2099 21.5303C37.6134 21.9928 38.9488 22.6231 40.3006 23.2126C42.9466 24.3668 45.7099 24.9757 48.596 25.0304C48.9471 25.0372 49.2978 25.0632 49.6485 25.0885C49.881 25.1053 50.0546 25.2252 50.1749 25.4251C50.2867 25.6107 50.2817 25.7676 50.0937 25.9103C49.9844 25.9932 49.8633 26.042 49.8415 26.2461C49.8246 26.4009 49.5719 26.5318 49.3579 26.4439C49.1817 26.3715 49.1077 26.3946 49.0716 26.5899C49.0409 26.7557 48.7138 26.9345 48.5889 26.8411C48.448 26.7355 48.3597 26.812 48.2563 26.8592C47.6273 27.1457 46.9982 27.4319 46.3743 27.7289C46.2006 27.8118 45.9828 27.8266 45.9521 28.1266C45.9387 28.2591 45.6776 28.4148 45.4673 28.2722C45.2743 28.1413 45.1978 28.2044 45.1616 28.4047C45.1162 28.6564 44.8169 28.8011 44.6209 28.6412C44.5238 28.5621 44.4721 28.6164 44.4035 28.6315C43.8132 28.7628 43.4222 28.5049 43.3116 27.8994C43.2632 27.6351 43.2216 27.3696 43.1884 27.1028C43.1564 26.8478 43.0193 26.7384 42.7679 26.6913C41.5645 26.4645 40.3532 26.3635 39.1288 26.3786C38.0751 26.3917 37.0209 26.4746 35.9681 26.3437C35.2827 26.2587 34.6335 26.0946 34.0646 25.6734C33.6189 25.3435 33.1102 25.2206 32.5518 25.2139C31.0318 25.1954 29.5122 25.1495 27.9931 25.1062C27.8022 25.1007 27.6714 25.1196 27.6537 25.3456C27.6394 25.532 27.4994 25.5236 27.3586 25.5223C25.4454 25.508 23.5323 25.4954 21.6192 25.4853C20.9309 25.4815 20.2421 25.4849 19.537 25.5257C19.8553 25.6839 20.1707 25.8476 20.4927 25.997C20.6298 26.0605 20.6946 26.1434 20.7105 26.2978C20.8215 27.3675 20.9363 28.4371 21.0646 29.5047C21.0877 29.6974 21.0095 29.7454 20.8548 29.7584C20.6777 29.7735 20.6504 29.8703 20.6681 30.0332C20.8237 31.4643 20.8792 32.9008 20.917 34.3391C20.9393 35.1975 20.5979 35.8316 19.8776 36.2836C19.4311 36.5638 18.974 36.8243 18.5077 37.0692C18.39 37.131 18.2542 37.1588 18.3517 37.3528C18.4358 37.5198 18.2558 37.5299 18.1688 37.5707C16.8616 38.1885 15.5077 38.6913 14.15 39.1836C12.4534 39.7988 10.7412 40.3753 9.11991 41.1794C7.84084 41.8135 6.65344 42.5735 5.77802 43.7361C5.60479 43.9663 5.4551 44.2158 5.31046 44.4662C5.15236 44.7397 4.9148 44.7877 4.64486 44.7111C4.38627 44.6379 4.21388 44.4704 4.21262 44.1767C4.21177 44.0109 4.21598 43.8455 4.21051 43.6797C4.20841 43.6128 4.23574 43.5426 4.17015 43.4794C3.94099 43.2577 3.97884 43.0805 4.1979 42.8403C4.33329 42.6917 4.39594 42.422 4.29419 42.1838C4.20337 41.9713 4.2883 41.7168 4.49685 41.6368C4.54689 41.6175 4.59104 41.6065 4.6129 41.5602C4.8778 40.9989 5.3668 40.6042 5.69855 40.0934C5.80535 39.9293 5.93612 39.7896 5.83857 39.5396C5.78517 39.4024 5.85413 39.1798 6.07109 39.091C6.22876 39.0267 6.28048 38.8798 6.24558 38.7144C6.19092 38.4561 6.30571 38.2579 6.55336 38.199C6.5828 38.1918 6.62358 38.2023 6.64208 38.1855C7.11175 37.7601 7.55576 37.9507 8.03299 38.1998C8.96601 38.6871 9.78677 38.5571 10.5962 37.8295C11.5191 36.9997 12.4105 36.1342 13.3687 35.3439C14.0079 34.8171 14.6705 34.3231 15.4316 33.9814C15.733 33.8459 16.0488 33.7491 16.4087 33.7188L16.4066 33.7193Z" fill="black"/>
<path id="Vector_13" d="M54.1637 24.0575C52.2964 24.0508 50.8037 22.5507 50.8037 20.6811C50.8037 18.8267 52.3069 17.3068 54.1368 17.3106C56.0444 17.3144 57.5779 18.8355 57.556 20.7026C57.5346 22.5709 56.0247 24.0643 54.1637 24.0575Z" fill="black"/>
</g>
</svg>
