<?xml version="1.0" encoding="utf-8"?>
<!-- Generator: Adobe Illustrator 25.3.1, SVG Export Plug-In . SVG Version: 6.00 Build 0)  -->
<svg version="1.1" xmlns="http://www.w3.org/2000/svg" xmlns:xlink="http://www.w3.org/1999/xlink" x="0px" y="0px"
	 viewBox="0 0 391.18 127.56" style="enable-background:new 0 0 391.18 127.56;" xml:space="preserve">
<style type="text/css">
	.st0{fill:#002750;}
	.st1{fill:#FFFFFF;}
	.st2{fill:#E3000F;}
	.st3{fill:none;stroke:#000000;stroke-width:0.1002;stroke-miterlimit:10;}
	.st4{fill:#E1B600;}
	.st5{fill:url(#SVGID_1_);}
	.st6{fill:url(#XMLID_6_);}
	.st7{fill:url(#XMLID_7_);}
	.st8{fill:url(#XMLID_8_);}
	.st9{fill:url(#SVGID_2_);}
	.st10{fill:#1B1713;}
	.st11{fill:url(#SVGID_3_);}
	.st12{fill:url(#SVGID_4_);}
	.st13{fill:url(#SVGID_5_);}
	.st14{fill:url(#SVGID_6_);}
	.st15{fill:url(#SVGID_7_);}
	.st16{fill:url(#SVGID_8_);}
	.st17{fill:url(#SVGID_9_);}
	.st18{fill:url(#SVGID_10_);}
	.st19{fill:url(#SVGID_11_);}
	.st20{fill:url(#SVGID_12_);}
	.st21{fill:url(#SVGID_13_);}
	.st22{fill:url(#SVGID_14_);}
	.st23{fill:url(#SVGID_15_);}
	.st24{fill:url(#SVGID_16_);}
	.st25{fill:url(#SVGID_17_);}
	.st26{fill:url(#SVGID_18_);}
	.st27{fill:url(#SVGID_19_);}
	.st28{fill:url(#SVGID_20_);}
	.st29{fill:url(#SVGID_21_);}
	.st30{fill:url(#SVGID_22_);}
	.st31{fill:url(#SVGID_23_);}
	.st32{fill:url(#SVGID_24_);}
	.st33{fill:url(#SVGID_25_);}
	.st34{fill:url(#SVGID_26_);}
	.st35{fill:url(#SVGID_27_);}
	.st36{fill:url(#SVGID_28_);}
	.st37{fill:url(#SVGID_29_);}
	.st38{fill:url(#SVGID_30_);}
	.st39{fill:url(#SVGID_31_);}
	.st40{fill:url(#SVGID_32_);}
	.st41{fill:url(#SVGID_33_);}
</style>
<g id="HG">
	<rect y="0" class="st0" width="391.18" height="127.56"/>
</g>
<g id="MERKUR">
	<g>
		<path class="st1" d="M138.68,45.61h11.42l8.57,17.13l8.81-17.13h11l2.07,37.91h-10.27l-1.03-23.39L161.7,74.4h-6.5l-7.35-14.03
			l-1.03,23.15h-10.21L138.68,45.61z"/>
		<path class="st1" d="M187.78,45.61h29.1v9.42h-18.53v4.8h16.22v8.87h-16.22v5.41h19.07v9.42h-29.65V45.61z"/>
		<path class="st1" d="M224.17,45.61h16.58c9.78,0,15.49,5.65,15.49,13.18c0,5.1-2.43,8.93-6.2,11.3l8.5,13.43h-12.21l-6.2-11
			c-0.73,0-1.58,0-2.43-0.06c-1.09-0.06-2.19-0.18-3.22-0.36v11.42h-10.33V45.61z M245.19,59.03c0-2.79-1.94-4.56-5.22-4.56h-5.47
			v8.81c1.88,0.3,3.4,0.37,5.47,0.37C243.31,63.65,245.19,61.77,245.19,59.03z"/>
		<path class="st1" d="M303.21,64.32V45.61h10.87v19.08c0,6.74,2.19,9.54,6.92,9.54c4.74,0,7.11-2.79,7.11-9.54V45.61h10.87v18.71
			c0,12.15-6.14,19.86-17.92,19.86C308.92,84.18,303.21,76.71,303.21,64.32z"/>
		<path class="st1" d="M346.4,45.61h16.58c9.78,0,15.49,5.65,15.49,13.18c0,5.1-2.43,8.93-6.2,11.3l8.5,13.43h-12.21l-6.2-11
			c-0.73,0-1.58,0-2.43-0.06c-1.09-0.06-2.19-0.18-3.22-0.36v11.42H346.4V45.61z M367.42,59.03c0-2.79-1.94-4.56-5.22-4.56h-5.47
			v8.81c1.88,0.3,3.4,0.37,5.47,0.37C365.54,63.65,367.42,61.77,367.42,59.03z"/>
		<g>
			<path class="st1" d="M263.87,45.61h10.81l0.02,13.61c1.09,0.12,2.01,0.18,3.04,0.18c4.63,0,8-5.58,8.64-13.8h10.69
				c-0.24,8.75-2.95,15.1-8.17,19.29l11.09,18.62h-13.06l-8.69-14.46c-1.28,0.05-2.39-0.06-3.54-0.18v14.64h-10.81V45.61z"/>
		</g>
	</g>
	<rect x="136.61" y="90.5" class="st2" width="244.14" height="4.72"/>
</g>
<g id="Sonne">
	<g>
		<path class="st3" d="M39.1,71.06"/>
		<g>
			<circle class="st4" cx="67.84" cy="64.35" r="29.54"/>
			
				<radialGradient id="SVGID_1_" cx="90.5866" cy="-208.1308" r="59.5837" gradientTransform="matrix(0.8735 0 0 0.8736 -26.9929 226.9722)" gradientUnits="userSpaceOnUse">
				<stop  offset="0" style="stop-color:#FFF2A9"/>
				<stop  offset="0" style="stop-color:#FFE500"/>
				<stop  offset="0.3141" style="stop-color:#FFD900"/>
				<stop  offset="0.6907" style="stop-color:#FFCF00"/>
				<stop  offset="0.999" style="stop-color:#FFCC00"/>
				<stop  offset="0.9997" style="stop-color:#FFCC00"/>
			</radialGradient>
			<path class="st5" d="M99,68.32l24.66-15.8l-26.9-1.58l16.79-21.92L87.53,40.57l5.8-23.42L78.5,30.63L76.84,9.05L63.49,32.4
				L49.54,11.74l2.11,25.55L29.15,20.77l10.1,23.53l-21.28-4.58l19.25,18.5l-27,5.29l23.27,8.05L13.46,83.52l26.6-3.25l-16.55,21.42
				L48.73,89.6l-5.13,28.55L59.6,98.77l6.23,18.84l6.65-18.89l16.3,20.61l-2.96-29.85l22.22,14.38L97.8,78.5l23.82-0.61L99,68.32z
				 M67.84,35.73c15.78,0,28.61,12.84,28.61,28.62c0,0.01,0,0.02,0,0.03c0,0.01,0,0.02,0,0.03c0,15.82-12.83,28.65-28.65,28.65
				c-15.82,0-28.65-12.83-28.65-28.65c0-10.9,6.08-20.37,15.04-25.22C58.25,36.99,62.9,35.73,67.84,35.73z"/>
			
				<radialGradient id="XMLID_6_" cx="64.3208" cy="60.0668" r="31.2213" gradientTransform="matrix(1 0 0 1 -8.314119e-03 0)" gradientUnits="userSpaceOnUse">
				<stop  offset="0.2148" style="stop-color:#FFF6D9"/>
				<stop  offset="0.355" style="stop-color:#FFF6D5"/>
				<stop  offset="0.5035" style="stop-color:#FFF4CB"/>
				<stop  offset="0.6559" style="stop-color:#FFF1BA"/>
				<stop  offset="0.8109" style="stop-color:#FFEDA0"/>
				<stop  offset="0.9665" style="stop-color:#FFE87B"/>
				<stop  offset="1" style="stop-color:#FFE771"/>
			</radialGradient>
			<path id="XMLID_222_" class="st6" d="M67.9,36.95c15.11,0,27.4,12.29,27.4,27.4c0,15.11-12.29,27.4-27.4,27.4
				c-15.1,0-27.4-12.29-27.4-27.4C40.5,49.24,52.8,36.95,67.9,36.95z"/>
			
				<radialGradient id="XMLID_7_" cx="107.4866" cy="-187.1338" r="32.4285" gradientTransform="matrix(0.8735 0 0 0.8736 -26.9929 226.9722)" gradientUnits="userSpaceOnUse">
				<stop  offset="0" style="stop-color:#CCA200;stop-opacity:0"/>
				<stop  offset="0.9601" style="stop-color:#CCA200;stop-opacity:0"/>
				<stop  offset="1" style="stop-color:#CCA200"/>
			</radialGradient>
			<path id="XMLID_221_" class="st7" d="M67.9,36.95c15.11,0,27.4,12.29,27.4,27.4c0,15.11-12.29,27.4-27.4,27.4
				c-15.1,0-27.4-12.29-27.4-27.4C40.5,49.24,52.8,36.95,67.9,36.95z"/>
			
				<radialGradient id="XMLID_8_" cx="109.4635" cy="-185.1139" r="32.6788" gradientTransform="matrix(-0.6519 -0.5815 0.6141 -0.6884 253.6604 1.482)" gradientUnits="userSpaceOnUse">
				<stop  offset="0" style="stop-color:#FFFFFF;stop-opacity:0"/>
				<stop  offset="0.9552" style="stop-color:#FFEC8C;stop-opacity:0"/>
				<stop  offset="0.9562" style="stop-color:#FFED93;stop-opacity:0.0216"/>
				<stop  offset="0.9623" style="stop-color:#FFF2B4;stop-opacity:0.1575"/>
				<stop  offset="0.9687" style="stop-color:#FFF7CE;stop-opacity:0.3001"/>
				<stop  offset="0.9753" style="stop-color:#FFFAE0;stop-opacity:0.4492"/>
				<stop  offset="0.9824" style="stop-color:#FFFCED;stop-opacity:0.6074"/>
				<stop  offset="0.9902" style="stop-color:#FFFEF4;stop-opacity:0.7811"/>
				<stop  offset="1" style="stop-color:#FFFEF6"/>
			</radialGradient>
			<path id="XMLID_220_" class="st8" d="M67.9,36.95c15.11,0,27.4,12.29,27.4,27.4c0,15.11-12.29,27.4-27.4,27.4
				c-15.1,0-27.4-12.29-27.4-27.4C40.5,49.24,52.8,36.95,67.9,36.95z"/>
			
				<radialGradient id="SVGID_2_" cx="107.5322" cy="-187.0771" r="34.0069" fx="106.7255" fy="-187.1477" gradientTransform="matrix(0.6704 0.56 -0.5744 0.6876 -112.5987 131.9594)" gradientUnits="userSpaceOnUse">
				<stop  offset="0.8114" style="stop-color:#CCA200"/>
				<stop  offset="0.9233" style="stop-color:#CCA200"/>
				<stop  offset="0.9611" style="stop-color:#CCA200;stop-opacity:0"/>
			</radialGradient>
			<path class="st9" d="M99,68.32l24.66-15.8l-26.9-1.58l16.79-21.92L87.53,40.57l5.8-23.42L78.5,30.63L76.84,9.05L63.49,32.4
				L49.54,11.74l2.11,25.55L29.15,20.77l10.1,23.53l-21.28-4.58l19.25,18.5l-27,5.29l23.27,8.05L13.46,83.52l26.6-3.25l-16.55,21.42
				L48.73,89.6l-5.13,28.55L59.6,98.77l6.23,18.84l6.65-18.89l16.3,20.61l-2.96-29.85l22.22,14.38L97.8,78.5l23.82-0.61L99,68.32z
				 M67.84,35.73c15.78,0,28.61,12.84,28.61,28.62c0,0.01,0,0.02,0,0.03c0,0.01,0,0.02,0,0.03c0,15.82-12.83,28.65-28.65,28.65
				c-15.82,0-28.65-12.83-28.65-28.65c0-10.9,6.08-20.37,15.04-25.22C58.25,36.99,62.9,35.73,67.84,35.73z"/>
			<g>
				<path class="st10" d="M88.12,73.02C85.67,70.72,85,67.8,85,67.8c-0.14-0.46-0.44-0.38-0.44-0.38c-0.32,0.07-0.19,0.43-0.19,0.43
					c0.55,2.12,0.8,2.66,0.8,2.66c-18.83,4.01-35.75-0.4-35.75-0.4c0.77-1.22,1.3-2.57,1.3-2.57c0.11-0.41-0.1-0.48-0.1-0.48
					c-0.32-0.11-0.41,0.24-0.41,0.24c-1.78,3.39-4.27,4.62-4.27,4.62l0,0c0,0-0.49,0.28-0.32,0.53c0,0,0.12,0.2,0.73-0.03v0
					c1.16-0.6,2.39-1.61,2.39-1.61c1.91,3.48,4.97,6.85,4.97,6.85c3.39,3.75,7.06,5.11,7.06,5.11c2.41,1.27,5.71,1.32,5.71,1.32
					c13.14,0.68,19.1-12.64,19.1-12.64c0.58,1,2.06,2.05,2.06,2.05C88.42,73.73,88.12,73.02,88.12,73.02z M67.05,83.14
					c-10.96-0.13-16.99-12-16.99-12l0.86,0.18c9.65,2.22,17.47,1.88,18.47,1.84c-2.39,0.09,6.82,0.08,14.14-1.44l0.97-0.19
					C84.49,71.55,78.7,83.28,67.05,83.14z"/>
				<path id="XMLID_216_" class="st10" d="M63.01,64.11c0.21,0.02,3.99,0.05,3.99,0.05c1.07-0.16,0.57,1.12,0.57,1.12
					c-0.37,0.46,0.07,0.6,0.07,0.6c0.62,0,0.82-1.25,0.82-1.25c0.16-1.36-0.97-1.15-0.97-1.15c0,0.02-4.16-0.09-4.16-0.09
					c-4.06-0.34-3.81-4.41-3.81-4.41c0.02-2.66,2.55-4.98,2.55-4.98c2.01-1.87,5.63-2.91,5.63-2.91c0.5-0.23,0.33-0.35,0.33-0.35
					c-0.11-0.38-2.09,0.32-2.09,0.32s-6.89,1.99-7.33,7.77C58.59,58.84,58.24,63.62,63.01,64.11"/>
				<path id="XMLID_215_" class="st10" d="M45.03,55.03c0,0,2.36-4.77,6.34-3.73c3.98,1.03,3.96,5.89,3.96,5.89s0.69-5.73-3.76-6.87
					C46.57,49.04,45.03,55.03,45.03,55.03z"/>
				<path id="XMLID_214_" class="st10" d="M81.63,51.9c5.77,0.46,5.77,6.81,5.77,6.81s-0.91-5.59-5.77-6.03
					c-3.37-0.31-5.23,3.89-5.23,3.89S77.45,51.57,81.63,51.9z"/>
				<g>
					<g>
						<path id="XMLID_212_" class="st10" d="M49.91,55.01C49.86,55.01,49.88,55.01,49.91,55.01L49.91,55.01z"/>
						<path id="XMLID_210_" class="st10" d="M50.01,55C50,55,50,55,49.99,55C50,55,50.01,55,50.01,55z"/>
						<path id="XMLID_208_" class="st10" d="M49.99,55c-0.02,0-0.05,0-0.08,0.01C49.93,55.01,49.95,55.01,49.99,55z"/>
						<path class="st10" d="M50.01,55c-2.82,0.03-4.14,8.46-0.83,8.77C52.41,64.06,53.5,54.73,50.01,55z"/>
					</g>
					<path id="XMLID_205_" class="st1" d="M49.23,56.23c0,0-0.77,0.41-0.96,1.73c-0.19,1.31-0.19,1.63-0.19,1.63
						s0.27,0.22,0.63,0.15c0.37-0.07,0.71-0.41,0.71-0.41s-0.14-0.36,0.09-1.4c0.23-1.04,0.49-1.61,0.49-1.61s-0.16-0.09-0.36-0.11
						C49.44,56.19,49.23,56.23,49.23,56.23z"/>
				</g>
				<g>
					<path class="st10" d="M83.61,59.59c-0.06-1.14-0.33-2.34-0.96-2.82c0,0-0.37-0.29-0.54-0.35c-0.17-0.06-0.54-0.13-0.54-0.13
						c-2.88-0.18-4.23,8.95-1.32,9.28C82.34,65.82,83.79,62.22,83.61,59.59z"/>
					<path id="XMLID_202_" class="st1" d="M80.86,57.42c0,0-0.77,0.41-0.96,1.73c-0.19,1.31-0.19,1.63-0.19,1.63
						s0.27,0.22,0.63,0.15c0.37-0.07,0.71-0.41,0.71-0.41s-0.14-0.36,0.09-1.4c0.23-1.04,0.49-1.61,0.49-1.61s-0.16-0.09-0.36-0.11
						C81.08,57.38,80.86,57.42,80.86,57.42z"/>
				</g>
			</g>
			
				<radialGradient id="SVGID_3_" cx="109.3879" cy="-185.2385" r="33.2085" gradientTransform="matrix(0.7171 0.4989 -0.4979 0.7157 -102.1021 143.1515)" gradientUnits="userSpaceOnUse">
				<stop  offset="0.5838" style="stop-color:#FFEC8C;stop-opacity:0"/>
				<stop  offset="0.9644" style="stop-color:#FFEEA4"/>
				<stop  offset="0.9745" style="stop-color:#FFEEA0;stop-opacity:0.6062"/>
				<stop  offset="0.9849" style="stop-color:#FFED95;stop-opacity:0.199"/>
				<stop  offset="0.99" style="stop-color:#FFEC8C;stop-opacity:0"/>
			</radialGradient>
			<path class="st11" d="M99,68.32l24.66-15.8l-26.9-1.58l16.79-21.92L87.53,40.57l5.8-23.42L78.5,30.63L76.84,9.05L63.49,32.4
				L49.54,11.74l2.11,25.55L29.15,20.77l10.1,23.53l-21.28-4.58l19.25,18.5l-27,5.29l23.27,8.05L13.46,83.52l26.6-3.25l-16.55,21.42
				L48.73,89.6l-5.13,28.55L59.6,98.77l6.23,18.84l6.65-18.89l16.3,20.61l-2.96-29.85l22.22,14.38L97.8,78.5l23.82-0.61L99,68.32z
				 M67.84,35.73c15.78,0,28.61,12.84,28.61,28.62c0,0.01,0,0.02,0,0.03c0,0.01,0,0.02,0,0.03c0,15.82-12.83,28.65-28.65,28.65
				c-15.82,0-28.65-12.83-28.65-28.65c0-10.9,6.08-20.37,15.04-25.22C58.25,36.99,62.9,35.73,67.84,35.73z"/>
			<g>
				<linearGradient id="SVGID_4_" gradientUnits="userSpaceOnUse" x1="28.3382" y1="41.3992" x2="28.1168" y2="42.4408">
					<stop  offset="0.07" style="stop-color:#FFEEA4"/>
					<stop  offset="0.2003" style="stop-color:#FFED9F"/>
					<stop  offset="0.3632" style="stop-color:#FFEB90"/>
					<stop  offset="0.5435" style="stop-color:#FFE676"/>
					<stop  offset="0.7364" style="stop-color:#FFE04C"/>
					<stop  offset="0.9372" style="stop-color:#FFDA00"/>
					<stop  offset="0.99" style="stop-color:#FFD800"/>
				</linearGradient>
				<polygon class="st12" points="19.59,40.57 40.1,44.99 40.09,44.99 38.41,43.6 16.36,38.85 19.59,40.57 				"/>
				<linearGradient id="SVGID_5_" gradientUnits="userSpaceOnUse" x1="78.217" y1="19.5005" x2="77.0886" y2="19.5794">
					<stop  offset="0.077" style="stop-color:#CCA200"/>
					<stop  offset="0.3733" style="stop-color:#DAAE00"/>
					<stop  offset="0.9602" style="stop-color:#FECB00"/>
					<stop  offset="0.98" style="stop-color:#FFCC00"/>
				</linearGradient>
				<polygon class="st13" points="76.47,10.72 78.08,31.69 78.92,29.57 78.92,29.57 77.22,7.39 76.47,10.72 				"/>
				<linearGradient id="SVGID_6_" gradientUnits="userSpaceOnUse" x1="56.6236" y1="21.3279" x2="55.7831" y2="21.8948">
					<stop  offset="0.077" style="stop-color:#CCA200"/>
					<stop  offset="0.3733" style="stop-color:#DAB000"/>
					<stop  offset="0.9602" style="stop-color:#FFD300"/>
					<stop  offset="0.98" style="stop-color:#FFD400"/>
				</linearGradient>
				<polygon class="st14" points="63.53,33.35 63.53,33.35 63.45,31.46 63.45,31.46 48.88,9.88 48.88,9.88 50.19,13.61 				"/>
				<linearGradient id="SVGID_7_" gradientUnits="userSpaceOnUse" x1="85.7692" y1="23.264" x2="86.5154" y2="24.0928">
					<stop  offset="0.07" style="stop-color:#FFF4C5"/>
					<stop  offset="0.1839" style="stop-color:#FFF3C0"/>
					<stop  offset="0.3265" style="stop-color:#FFEFB3"/>
					<stop  offset="0.4843" style="stop-color:#FFEA9B"/>
					<stop  offset="0.6532" style="stop-color:#FFE178"/>
					<stop  offset="0.8288" style="stop-color:#FFD743"/>
					<stop  offset="1" style="stop-color:#FFCC00"/>
				</linearGradient>
				<polygon class="st15" points="78.08,31.69 92.44,18.62 94.2,15.67 78.92,29.57 78.08,31.69 				"/>
				<linearGradient id="SVGID_8_" gradientUnits="userSpaceOnUse" x1="33.5192" y1="32.3498" x2="34.5459" y2="31.914">
					<stop  offset="0.07" style="stop-color:#FFF4C5"/>
					<stop  offset="0.1839" style="stop-color:#FFF3C0"/>
					<stop  offset="0.3265" style="stop-color:#FFF1B3"/>
					<stop  offset="0.4843" style="stop-color:#FFED9C"/>
					<stop  offset="0.6532" style="stop-color:#FFE779"/>
					<stop  offset="0.8288" style="stop-color:#FFE043"/>
					<stop  offset="1" style="stop-color:#FFDA00"/>
				</linearGradient>
				<polygon class="st16" points="30.34,22.26 30.34,22.26 27.97,19.28 38.41,43.6 38.41,43.6 40.09,44.99 				"/>
				<linearGradient id="SVGID_9_" gradientUnits="userSpaceOnUse" x1="40.4446" y1="28.3401" x2="39.759" y2="29.2838">
					<stop  offset="0.077" style="stop-color:#CCA200"/>
					<stop  offset="0.3733" style="stop-color:#DBB100"/>
					<stop  offset="0.9602" style="stop-color:#FFD800"/>
					<stop  offset="0.98" style="stop-color:#FFDA00"/>
				</linearGradient>
				<polygon class="st17" points="52.23,38.35 51.06,36.24 27.97,19.28 27.97,19.28 30.34,22.26 				"/>
				<linearGradient id="SVGID_10_" gradientUnits="userSpaceOnUse" x1="49.9989" y1="24.1604" x2="51.1068" y2="24.0634">
					<stop  offset="0.07" style="stop-color:#FFF4C5"/>
					<stop  offset="0.1839" style="stop-color:#FFF3C0"/>
					<stop  offset="0.3265" style="stop-color:#FFF0B3"/>
					<stop  offset="0.4843" style="stop-color:#FFEC9C"/>
					<stop  offset="0.6532" style="stop-color:#FFE579"/>
					<stop  offset="0.8288" style="stop-color:#FFDD43"/>
					<stop  offset="1" style="stop-color:#FFD400"/>
				</linearGradient>
				<polygon class="st18" points="52.23,38.35 50.19,13.61 50.19,13.61 48.88,9.88 51.06,36.24 51.06,36.24 52.23,38.35 				"/>
				<linearGradient id="SVGID_11_" gradientUnits="userSpaceOnUse" x1="69.886" y1="20.0902" x2="70.8561" y2="20.6503">
					<stop  offset="0.07" style="stop-color:#FFF4C5"/>
					<stop  offset="0.1839" style="stop-color:#FFF3C0"/>
					<stop  offset="0.3265" style="stop-color:#FFF0B3"/>
					<stop  offset="0.4843" style="stop-color:#FFEC9C"/>
					<stop  offset="0.6532" style="stop-color:#FFE579"/>
					<stop  offset="0.8288" style="stop-color:#FFDD43"/>
					<stop  offset="1" style="stop-color:#FFD400"/>
				</linearGradient>
				<polygon class="st19" points="76.47,10.72 77.22,7.39 77.22,7.39 63.45,31.46 63.53,33.35 				"/>
				<linearGradient id="SVGID_12_" gradientUnits="userSpaceOnUse" x1="111.901" y1="60.7568" x2="111.2503" y2="59.7548">
					<stop  offset="0.077" style="stop-color:#CCA200"/>
					<stop  offset="0.3733" style="stop-color:#DAAE00"/>
					<stop  offset="0.9602" style="stop-color:#FECB00"/>
					<stop  offset="0.98" style="stop-color:#FFCC00"/>
				</linearGradient>
				<polygon class="st20" points="97.93,68.41 100.06,68.23 125.22,52.1 122.09,52.92 				"/>
				<linearGradient id="SVGID_13_" gradientUnits="userSpaceOnUse" x1="91.0034" y1="28.6792" x2="89.9975" y2="28.4284">
					<stop  offset="0.077" style="stop-color:#CCA200"/>
					<stop  offset="0.3733" style="stop-color:#DAAE00"/>
					<stop  offset="0.9602" style="stop-color:#FECB00"/>
					<stop  offset="0.98" style="stop-color:#FFCC00"/>
				</linearGradient>
				<polygon class="st21" points="92.44,18.62 86.79,41.44 86.79,41.44 88.26,39.69 94.2,15.67 94.2,15.67 92.44,18.62 				"/>
				<linearGradient id="SVGID_14_" gradientUnits="userSpaceOnUse" x1="110.5355" y1="51.1628" x2="110.4751" y2="52.3144">
					<stop  offset="0.07" style="stop-color:#FFEEA4"/>
					<stop  offset="0.2003" style="stop-color:#FFED9F"/>
					<stop  offset="0.3632" style="stop-color:#FFE990"/>
					<stop  offset="0.5435" style="stop-color:#FFE275"/>
					<stop  offset="0.7364" style="stop-color:#FFD94C"/>
					<stop  offset="0.9372" style="stop-color:#FFCF00"/>
					<stop  offset="0.99" style="stop-color:#FFCC00"/>
				</linearGradient>
				<polygon class="st22" points="122.09,52.92 122.09,52.92 125.22,52.1 125.22,52.1 97.73,50.49 97.73,50.49 95.79,51.38 				"/>
				<linearGradient id="SVGID_15_" gradientUnits="userSpaceOnUse" x1="110.5147" y1="78.7721" x2="110.4944" y2="77.6065">
					<stop  offset="0.077" style="stop-color:#CCA200"/>
					<stop  offset="0.3733" style="stop-color:#DAAE00"/>
					<stop  offset="0.9602" style="stop-color:#FECB00"/>
					<stop  offset="0.98" style="stop-color:#FFCC00"/>
				</linearGradient>
				<polygon class="st23" points="123.95,78.34 119.29,77.45 119.29,77.45 97.06,78.02 98.53,78.98 98.53,78.98 				"/>
				<linearGradient id="SVGID_16_" gradientUnits="userSpaceOnUse" x1="111.1502" y1="72.8673" x2="110.7357" y2="73.8438">
					<stop  offset="0" style="stop-color:#B37B00"/>
					<stop  offset="0.1781" style="stop-color:#B88000"/>
					<stop  offset="0.412" style="stop-color:#C68E00"/>
					<stop  offset="0.6769" style="stop-color:#DDA700"/>
					<stop  offset="0.9629" style="stop-color:#FDCA00"/>
					<stop  offset="0.9775" style="stop-color:#FFCC00"/>
				</linearGradient>
				<polygon class="st24" points="100.06,68.23 97.93,68.41 119.29,77.45 123.95,78.34 				"/>
				<linearGradient id="SVGID_17_" gradientUnits="userSpaceOnUse" x1="105.9575" y1="39.9567" x2="104.9822" y2="39.1948">
					<stop  offset="0.077" style="stop-color:#CCA200"/>
					<stop  offset="0.3733" style="stop-color:#DAAE00"/>
					<stop  offset="0.9602" style="stop-color:#FECB00"/>
					<stop  offset="0.98" style="stop-color:#FFCC00"/>
				</linearGradient>
				<polygon class="st25" points="95.79,51.38 95.79,51.38 97.73,50.49 115.14,27.76 115.14,27.76 111.96,30.27 				"/>
				<linearGradient id="SVGID_18_" gradientUnits="userSpaceOnUse" x1="100.7571" y1="34.1285" x2="101.175" y2="35.0671">
					<stop  offset="0.07" style="stop-color:#FFF4C5"/>
					<stop  offset="0.1839" style="stop-color:#FFF3C0"/>
					<stop  offset="0.3265" style="stop-color:#FFEFB3"/>
					<stop  offset="0.4843" style="stop-color:#FFEA9B"/>
					<stop  offset="0.6532" style="stop-color:#FFE178"/>
					<stop  offset="0.8288" style="stop-color:#FFD743"/>
					<stop  offset="1" style="stop-color:#FFCC00"/>
				</linearGradient>
				<polygon class="st26" points="111.96,30.27 111.96,30.27 115.14,27.76 88.26,39.69 88.26,39.69 86.79,41.44 				"/>
				<linearGradient id="SVGID_19_" gradientUnits="userSpaceOnUse" x1="45.5426" y1="104.2409" x2="46.6253" y2="104.4318">
					<stop  offset="0.07" style="stop-color:#FFEEA4"/>
					<stop  offset="0.2003" style="stop-color:#FFED9F"/>
					<stop  offset="0.3632" style="stop-color:#FFE990"/>
					<stop  offset="0.5435" style="stop-color:#FFE275"/>
					<stop  offset="0.7364" style="stop-color:#FFD94C"/>
					<stop  offset="0.9372" style="stop-color:#FFCF00"/>
					<stop  offset="0.99" style="stop-color:#FFCC00"/>
				</linearGradient>
				<polygon class="st27" points="49.39,88.73 49.39,88.73 48.06,90.48 48.06,90.48 42.77,119.94 44.43,116.36 				"/>
				<linearGradient id="SVGID_20_" gradientUnits="userSpaceOnUse" x1="103.5432" y1="91.3857" x2="102.6129" y2="91.7615">
					<stop  offset="0" style="stop-color:#B37B00"/>
					<stop  offset="0.1781" style="stop-color:#B88000"/>
					<stop  offset="0.412" style="stop-color:#C68E00"/>
					<stop  offset="0.6769" style="stop-color:#DDA700"/>
					<stop  offset="0.9629" style="stop-color:#FDCA00"/>
					<stop  offset="0.9775" style="stop-color:#FFCC00"/>
				</linearGradient>
				<polygon class="st28" points="97.06,78.02 106.98,102.57 106.98,102.57 109.09,105.13 109.09,105.13 98.53,78.98 97.06,78.02 
									"/>
				<linearGradient id="SVGID_21_" gradientUnits="userSpaceOnUse" x1="51.7579" y1="109.2346" x2="50.819" y2="108.4743">
					<stop  offset="0" style="stop-color:#B37B00"/>
					<stop  offset="0.1781" style="stop-color:#B88000"/>
					<stop  offset="0.412" style="stop-color:#C68E00"/>
					<stop  offset="0.6769" style="stop-color:#DDA700"/>
					<stop  offset="0.9629" style="stop-color:#FDCA00"/>
					<stop  offset="0.9775" style="stop-color:#FFCC00"/>
				</linearGradient>
				<polygon class="st29" points="59.79,97.75 44.43,116.36 44.43,116.36 42.77,119.94 42.77,119.94 59.41,99.79 59.41,99.79 
					59.79,97.76 				"/>
				<linearGradient id="SVGID_22_" gradientUnits="userSpaceOnUse" x1="69.5971" y1="108.609" x2="68.5359" y2="108.2436">
					<stop  offset="0" style="stop-color:#B37B00"/>
					<stop  offset="0.1781" style="stop-color:#B88000"/>
					<stop  offset="0.412" style="stop-color:#C68E00"/>
					<stop  offset="0.6769" style="stop-color:#DDA700"/>
					<stop  offset="0.9629" style="stop-color:#FDCA00"/>
					<stop  offset="0.9775" style="stop-color:#FFCC00"/>
				</linearGradient>
				<polygon class="st30" points="65.84,116.06 65.84,116.06 65.81,119.16 72.65,99.74 72.65,99.74 72.31,97.69 				"/>
				<linearGradient id="SVGID_23_" gradientUnits="userSpaceOnUse" x1="62.2788" y1="108.6258" x2="63.3188" y2="108.2879">
					<stop  offset="0.077" style="stop-color:#CCA200"/>
					<stop  offset="0.3733" style="stop-color:#DAAE00"/>
					<stop  offset="0.9602" style="stop-color:#FECB00"/>
					<stop  offset="0.98" style="stop-color:#FFCC00"/>
				</linearGradient>
				<polygon class="st31" points="59.79,97.76 59.41,99.79 65.81,119.16 65.81,119.16 65.84,116.06 				"/>
				<linearGradient id="SVGID_24_" gradientUnits="userSpaceOnUse" x1="80.4265" y1="109.688" x2="81.3266" y2="108.9848">
					<stop  offset="0.077" style="stop-color:#CCA200"/>
					<stop  offset="0.3733" style="stop-color:#DAAE00"/>
					<stop  offset="0.9602" style="stop-color:#FECB00"/>
					<stop  offset="0.98" style="stop-color:#FFCC00"/>
				</linearGradient>
				<polygon class="st32" points="72.31,97.69 72.31,97.69 72.65,99.74 89.45,120.97 89.45,120.97 88.12,117.68 				"/>
				<linearGradient id="SVGID_25_" gradientUnits="userSpaceOnUse" x1="96.8742" y1="97.2432" x2="97.4385" y2="96.3741">
					<stop  offset="0.077" style="stop-color:#CCA200"/>
					<stop  offset="0.3733" style="stop-color:#DAAE00"/>
					<stop  offset="0.9602" style="stop-color:#FECB00"/>
					<stop  offset="0.98" style="stop-color:#FFCC00"/>
				</linearGradient>
				<polygon class="st33" points="85.22,88.49 85.22,88.49 86.42,90.46 86.42,90.46 109.09,105.13 106.98,102.57 				"/>
				<linearGradient id="SVGID_26_" gradientUnits="userSpaceOnUse" x1="87.9156" y1="104.6689" x2="86.7628" y2="104.7901">
					<stop  offset="0" style="stop-color:#B37B00"/>
					<stop  offset="0.1781" style="stop-color:#B88000"/>
					<stop  offset="0.412" style="stop-color:#C68E00"/>
					<stop  offset="0.6769" style="stop-color:#DDA700"/>
					<stop  offset="0.9629" style="stop-color:#FDCA00"/>
					<stop  offset="0.9775" style="stop-color:#FFCC00"/>
				</linearGradient>
				<polygon class="st34" points="88.12,117.68 88.12,117.68 89.45,120.97 86.42,90.46 85.22,88.49 				"/>
				<linearGradient id="SVGID_27_" gradientUnits="userSpaceOnUse" x1="26.2409" y1="82.4608" x2="26.1178" y2="81.4579">
					<stop  offset="0.077" style="stop-color:#CCA200"/>
					<stop  offset="0.3733" style="stop-color:#DAAE00"/>
					<stop  offset="0.9602" style="stop-color:#FECB00"/>
					<stop  offset="0.98" style="stop-color:#FFCC00"/>
				</linearGradient>
				<polygon class="st35" points="41.19,79.62 15.75,82.73 15.75,82.73 11.17,84.3 38.93,80.9 41.19,79.62 				"/>
				<linearGradient id="SVGID_28_" gradientUnits="userSpaceOnUse" x1="21.3223" y1="67.8957" x2="21.6587" y2="66.9187">
					<stop  offset="0.077" style="stop-color:#CCA200"/>
					<stop  offset="0.3733" style="stop-color:#DAAE00"/>
					<stop  offset="0.9602" style="stop-color:#FECB00"/>
					<stop  offset="0.98" style="stop-color:#FFCC00"/>
				</linearGradient>
				<polygon class="st36" points="34.67,71.44 12.14,63.64 12.14,63.64 8.31,63.37 32.32,71.68 34.67,71.44 				"/>
				<linearGradient id="SVGID_29_" gradientUnits="userSpaceOnUse" x1="23.1877" y1="60.4367" x2="23.3858" y2="61.456">
					<stop  offset="0.07" style="stop-color:#FFEEA4"/>
					<stop  offset="0.2003" style="stop-color:#FFED9F"/>
					<stop  offset="0.3632" style="stop-color:#FFEA90"/>
					<stop  offset="0.5435" style="stop-color:#FFE576"/>
					<stop  offset="0.7364" style="stop-color:#FFDD4C"/>
					<stop  offset="0.9372" style="stop-color:#FFD500"/>
					<stop  offset="0.99" style="stop-color:#FFD300"/>
				</linearGradient>
				<polygon class="st37" points="38.27,58.52 36.19,57.91 36.19,57.91 8.31,63.37 8.31,63.37 12.14,63.64 				"/>
				<linearGradient id="SVGID_30_" gradientUnits="userSpaceOnUse" x1="35.8739" y1="96.4222" x2="35.3564" y2="95.3612">
					<stop  offset="0" style="stop-color:#B37B00"/>
					<stop  offset="0.1781" style="stop-color:#B88000"/>
					<stop  offset="0.412" style="stop-color:#C68E00"/>
					<stop  offset="0.6769" style="stop-color:#DDA700"/>
					<stop  offset="0.9629" style="stop-color:#FDCA00"/>
					<stop  offset="0.9775" style="stop-color:#FFCC00"/>
				</linearGradient>
				<polygon class="st38" points="25.2,100.32 21.83,103.04 48.06,90.48 49.39,88.73 				"/>
				<linearGradient id="SVGID_31_" gradientUnits="userSpaceOnUse" x1="22.643" y1="77.405" x2="23.2006" y2="78.333">
					<stop  offset="0.07" style="stop-color:#FFEEA4"/>
					<stop  offset="0.2003" style="stop-color:#FFED9F"/>
					<stop  offset="0.3632" style="stop-color:#FFE990"/>
					<stop  offset="0.5435" style="stop-color:#FFE275"/>
					<stop  offset="0.7364" style="stop-color:#FFD94C"/>
					<stop  offset="0.9372" style="stop-color:#FFCF00"/>
					<stop  offset="0.99" style="stop-color:#FFCC00"/>
				</linearGradient>
				<polygon class="st39" points="34.67,71.44 32.32,71.68 32.32,71.68 11.17,84.3 11.17,84.3 15.75,82.73 				"/>
				<linearGradient id="SVGID_32_" gradientUnits="userSpaceOnUse" x1="31.0613" y1="90.978" x2="31.95" y2="91.6723">
					<stop  offset="0.07" style="stop-color:#FFEEA4"/>
					<stop  offset="0.2003" style="stop-color:#FFED9F"/>
					<stop  offset="0.3632" style="stop-color:#FFE990"/>
					<stop  offset="0.5435" style="stop-color:#FFE275"/>
					<stop  offset="0.7364" style="stop-color:#FFD94C"/>
					<stop  offset="0.9372" style="stop-color:#FFCF00"/>
					<stop  offset="0.99" style="stop-color:#FFCC00"/>
				</linearGradient>
				<polygon class="st40" points="25.2,100.32 41.19,79.62 38.93,80.9 38.93,80.9 21.83,103.04 21.83,103.04 25.2,100.32 				"/>
				<linearGradient id="SVGID_33_" gradientUnits="userSpaceOnUse" x1="26.9421" y1="49.0722" x2="27.6851" y2="48.3028">
					<stop  offset="0.077" style="stop-color:#CCA200"/>
					<stop  offset="0.3733" style="stop-color:#DAB000"/>
					<stop  offset="0.9602" style="stop-color:#FFD300"/>
					<stop  offset="0.98" style="stop-color:#FFD400"/>
				</linearGradient>
				<polygon class="st41" points="38.27,58.52 19.59,40.57 16.36,38.85 16.36,38.85 36.19,57.91 38.27,58.52 				"/>
			</g>
		</g>
	</g>
	<g>
	</g>
	<g>
	</g>
	<g>
	</g>
	<g>
	</g>
	<g>
	</g>
	<g>
	</g>
</g>
</svg>
