<?xml version="1.0" encoding="UTF-8" standalone="no"?>
<svg
   width="300.57599"
   height="87.900002"
   viewBox="0 0 134.02733 39.241072"
   version="1.1"
   id="svg4"
   xmlns="http://www.w3.org/2000/svg"
   xmlns:svg="http://www.w3.org/2000/svg">
  <defs
     id="defs8" />
  <rect
     style="fill:#002d72;stroke-width:0.446429;fill-opacity:1"
     id="rect1020"
     width="134.77216"
     height="39.978287"
     x="-0.07918945"
     y="0" />
  <path
     fill="#ffed00"
     fill-rule="evenodd"
     d="M 24.359907,30.3125 28.819942,16.885006 V 30.3125 h 6.656854 V 8.9351193 H 26.490331 L 22.163088,19.623809 17.836229,8.9351193 H 8.84938 V 30.3125 h 6.657238 V 16.885006 l 4.49304,13.427494 z m 71.54132,-8.310388 c 2.076692,-0.16677 4.147243,-1.585278 4.147243,-3.914667 V 13.277304 12.809731 C 99.80745,10.400616 98.00632,9.0999636 95.871291,8.9285718 H 78.746539 L 78.746923,30.3125 h 6.65647 v -8.310388 h 2.649693 l 4.326475,8.310388 h 7.655479 l -5.152395,-8.310388 z m -1.843732,-5.545008 c 0,0.462565 -0.114754,0.868514 -0.942207,0.868514 h -7.711895 v -4.195827 h 7.721874 c 0.939136,0 0.932228,0.616625 0.932228,1.001776 z M 55.447742,13.144042 V 8.9351193 H 38.139538 V 30.3125 l 17.537711,-0.0046 0.0065,-4.203916 H 44.813278 l 0.0012,-4.578666 H 55.447742 V 17.327543 H 44.81443 v -4.183501 z m 8.320971,0 H 57.444606 V 8.9351193 H 76.749674 V 13.144042 H 70.425183 V 30.3125 h -6.65647 z M 121.01766,8.9351193 h -14.14577 c -2.12582,0.1721622 -3.92081,1.2540497 -4.16068,3.6743337 v 13.828435 c 0.23987,2.420284 2.03486,3.702449 4.16068,3.874612 h 14.14577 c 2.12543,-0.172163 3.92042,-1.454328 4.16029,-3.874612 V 12.609453 c -0.23987,-2.420284 -2.03486,-3.5021715 -4.16029,-3.6743337 z M 118.5211,25.148405 c -0.0307,0.240333 -0.1209,0.873135 -0.94183,0.955172 h -7.20951 c -0.82093,-0.08204 -0.97099,-0.714839 -1.00169,-0.955172 V 13.979047 c 0.0303,-0.240719 0.1443,-0.753354 0.96523,-0.835005 h 7.24904 c 0.82132,0.08165 0.90805,0.594286 0.93876,0.835005 z"
     id="path2"
     style="stroke-width:0.855357" />
</svg>
