<?xml version="1.0" encoding="utf-8"?>
<!-- Generator: Adobe Illustrator 16.0.0, SVG Export Plug-In . SVG Version: 6.00 Build 0)  -->
<!DOCTYPE svg PUBLIC "-//W3C//DTD SVG 1.1//EN" "http://www.w3.org/Graphics/SVG/1.1/DTD/svg11.dtd">
<svg version="1.1" id="Ebene_1" xmlns="http://www.w3.org/2000/svg" xmlns:xlink="http://www.w3.org/1999/xlink" x="0px" y="0px"
	 width="595.279px" height="177.82px" viewBox="0 332.035 595.279 177.82" enable-background="new 0 332.035 595.279 177.82"
	 xml:space="preserve">
<rect x="0" y="332.035" fill="#75B836" width="595.279" height="177.82"/>
<g>
	<g id="Düsseldorf">
		<path fill="#FFFFFF" d="M72.688,451.123c0,16.808-5.402,23.782-19.658,23.782c-5.946,0-12.256-0.18-17.594-0.607
			c-0.729-0.063-0.908-0.179-0.908-0.786v-44.713c0-0.665,0.18-0.786,0.908-0.85c5.338-0.486,11.647-0.665,17.594-0.665
			C67.291,427.284,72.688,434.38,72.688,451.123z M44.053,435.595v31h8.981c7.34,0,10.012-4.609,10.012-15.472
			c0-10.798-2.793-15.528-10.497-15.528H44.053z"/>
		<path fill="#FFFFFF" d="M109.517,440.632c0.607,0,0.85,0.301,0.85,0.908v31.307c0,0.786-0.242,0.907-0.85,1.029
			c-4.124,0.786-10.012,1.029-14.558,1.029c-11.647,0-14.62-2.187-14.62-14.621V441.54c0-0.607,0.364-0.908,0.972-0.908h7.16
			c0.606,0,0.85,0.301,0.85,0.908v16.442c0,8.733,0.972,9.161,6.553,9.161h5.46V441.54c0-0.607,0.301-0.908,0.908-0.908H109.517z
			 M92.831,431.957c0,2.852-1.579,4.488-4.673,4.488c-3.095,0-4.731-1.637-4.731-4.488c0-2.794,1.637-4.431,4.731-4.431
			C91.252,427.526,92.831,429.163,92.831,431.957z M106.238,431.957c0,2.852-1.579,4.488-4.673,4.488
			c-3.095,0-4.674-1.637-4.674-4.488c0-2.794,1.579-4.431,4.674-4.431C104.664,427.526,106.238,429.163,106.238,431.957z"/>
		<path fill="#FFFFFF" d="M142.396,441.112c0.729,0.179,0.972,0.422,0.972,0.972v4.609c0,0.665-0.243,0.972-1.029,0.972h-10.919
			c-2.366,0-3.58,0.665-3.58,2.187v0.606c0,1.151,0.729,2.001,2.909,2.794l7.767,2.729c5.159,1.822,6.368,4.974,6.368,9.098v0.972
			c0,7.038-5.217,8.86-12.921,8.86c-5.28,0-9.646-0.301-12.556-0.607c-0.786,0-1.029-0.243-1.029-0.908v-4.916
			c0-0.665,0.301-0.907,1.029-0.907h12.435c3.216,0,4.188-0.423,4.188-2.065v-0.543c0-1.151-0.665-1.943-3.337-2.852l-7.461-2.672
			c-4.795-1.637-6.188-5.339-6.188-9.219v-1.151c0-6.489,5.037-8.733,13.771-8.733C135.421,440.325,138.88,440.511,142.396,441.112z
			"/>
		<path fill="#FFFFFF" d="M175.217,441.112c0.729,0.179,0.972,0.422,0.972,0.972v4.609c0,0.665-0.242,0.972-1.029,0.972H164.24
			c-2.365,0-3.58,0.665-3.58,2.187v0.606c0,1.151,0.729,2.001,2.909,2.794l7.768,2.729c5.158,1.822,6.367,4.974,6.367,9.098v0.972
			c0,7.038-5.217,8.86-12.92,8.86c-5.281,0-9.647-0.301-12.557-0.607c-0.786,0-1.029-0.243-1.029-0.908v-4.916
			c0-0.665,0.301-0.907,1.029-0.907h12.435c3.216,0,4.188-0.423,4.188-2.065v-0.543c0-1.151-0.665-1.943-3.337-2.852l-7.461-2.672
			c-4.795-1.637-6.188-5.339-6.188-9.219v-1.151c0-6.489,5.037-8.733,13.771-8.733C168.242,440.325,171.701,440.511,175.217,441.112
			z"/>
		<path fill="#FFFFFF" d="M214.592,457.19v1.88c0,1.214-0.364,1.637-1.943,1.637h-19.051c0.121,5.459,1.578,6.431,6.854,6.431
			h10.739c0.607,0,0.908,0.301,0.908,0.908v5.038c0,0.665-0.301,0.907-0.85,0.971c-3.216,0.666-7.583,0.851-11.585,0.851
			c-12.255,0-15.228-3.458-15.228-17.293c0-13.892,2.973-17.287,15.228-17.287C211.619,440.325,214.533,443.663,214.592,457.19z
			 M193.539,454.825h12.013c-0.058-5.339-1.457-6.732-5.882-6.732C195.118,448.093,193.604,449.486,193.539,454.825z"/>
		<path fill="#FFFFFF" d="M230.49,427.648c0.607,0,0.908,0.301,0.908,0.908v45.076c0,0.665-0.301,0.972-0.908,0.972h-7.16
			c-0.607,0-0.908-0.301-0.908-0.972v-45.076c0-0.607,0.301-0.908,0.908-0.908H230.49z"/>
		<path fill="#FFFFFF" d="M269.194,427.648c0.665,0,0.908,0.301,0.908,0.972v43.619c0,0.908-0.485,1.394-1.272,1.515
			c-4.974,0.787-9.161,1.151-13.349,1.151c-12.799,0-15.713-3.58-15.713-17.229c0-13.47,2.851-17.351,13.892-17.351
			c2.793,0,5.217,0.122,7.461,0.365v-12.07c0-0.665,0.242-0.972,0.908-0.972H269.194z M255.666,448.15
			c-6.125,0-6.917,1.637-6.917,9.462c0,7.16,0.485,9.525,6.553,9.525c1.457,0,4.002-0.121,5.824-0.422V448.15H255.666z"/>
		<path fill="#FFFFFF" d="M308.568,457.618c0,13.834-2.851,17.293-15.471,17.293c-12.556,0-15.471-3.459-15.471-17.293
			c0-13.892,2.909-17.287,15.471-17.287C305.717,440.325,308.568,443.721,308.568,457.618z M286.666,457.618
			c0,7.646,0.907,9.525,6.431,9.525c5.581,0,6.489-1.88,6.489-9.525s-0.908-9.525-6.489-9.525
			C287.573,448.093,286.666,449.973,286.666,457.618z"/>
		<path fill="#FFFFFF" d="M334.958,440.991c0.665,0.179,0.972,0.422,0.972,1.214v4.974c0,0.607-0.364,0.908-1.029,0.908h-5.703
			c-3.152,0-4.245,0.486-4.245,3.095v22.445c0,0.665-0.301,0.972-0.908,0.972h-7.224c-0.606,0-0.907-0.301-0.907-0.972v-24.753
			c0-7.646,5.459-8.554,10.982-8.554C328.649,440.325,332.835,440.511,334.958,440.991z"/>
		<path fill="#FFFFFF" d="M364.5,427.949c0.665,0.121,0.972,0.422,0.972,1.15v5.038c0,0.665-0.364,0.972-1.029,0.972h-4.795
			c-2.365,0-3.395,0.301-3.395,2.365v3.216h7.402c0.665,0,0.851,0.301,0.729,1.029l-0.908,5.095
			c-0.122,0.607-0.486,0.851-1.029,0.851h-6.188v25.968c0,0.665-0.301,0.972-0.908,0.972h-7.16c-0.607,0-0.908-0.301-0.908-0.972
			v-25.968h-3.944c-0.665,0-1.029-0.301-1.029-0.908v-5.159c0-0.606,0.364-0.907,1.029-0.907h3.944v-4.795
			c0-7.646,5.217-8.554,10.677-8.554C359.833,427.342,362.256,427.526,364.5,427.949z"/>
	</g>
	<g id="Stadtwerke">
		<path fill="#FFFFFF" d="M62.994,366.337c0.688,0.231,1.029,0.515,1.029,1.03v4.638c0,0.746-0.342,1.029-1.088,1.029H49.368
			c-3.493,0-5.27,1.203-5.27,3.725v0.804c0,2.007,0.805,3.32,3.378,4.297l10.711,4.182c5.5,2.175,7.958,4.87,7.958,11.509v1.602
			c0,8.473-6.587,10.995-16.494,10.995c-4.239,0-8.762-0.341-14.146-1.203c-0.746-0.174-0.972-0.515-0.972-1.261v-4.355
			c0-0.688,0.341-1.03,1.087-1.03h16.264c3.436,0,5.211-1.029,5.211-3.551v-0.746c0-2.464-1.146-3.609-4.124-4.754l-11.168-4.182
			c-4.754-1.775-6.812-5.038-6.812-11.683v-1.261c0-8.473,5.899-10.937,16.031-10.937C55.782,365.192,58.53,365.533,62.994,366.337z
			"/>
		<path fill="#FFFFFF" d="M81.952,368.911c0.572-0.173,0.914,0.231,0.914,0.856v8.189h5.269c0.631,0,0.972,0.284,0.972,0.856v4.581
			c0,0.573-0.341,0.856-0.972,0.856h-5.269v15.633c0,2.464,0.861,2.921,3.377,2.921h2.349c0.688,0,0.972,0.231,0.972,0.856v4.87
			c0,0.688-0.283,0.972-0.914,1.087c-2.007,0.399-3.608,0.515-4.869,0.515c-4.928,0-9.393-0.173-9.393-7.386V384.26H71.01
			c-0.631,0-0.914-0.284-0.914-0.856v-4.581c0-0.573,0.283-0.856,0.914-0.856h3.378v-6.362c0-0.573,0.231-0.804,0.804-0.914
			L81.952,368.911z"/>
		<path fill="#FFFFFF" d="M122.495,387.354v19.814c0,0.914-0.231,1.428-1.262,1.775c-4.008,0.914-9.045,1.203-13.001,1.203
			c-8.589,0-13.111-0.914-13.227-9.907c0.115-7.733,4.123-9.393,11.74-9.393h7.275v-2.059c0-2.747-1.718-3.95-5.384-3.95H98.274
			c-0.631,0-0.804-0.173-0.804-0.856v-4.696c0-0.688,0.231-0.804,0.804-0.914c3.493-0.688,6.812-0.862,10.364-0.862
			C119.979,377.499,122.495,381.166,122.495,387.354z M107.435,396.342c-2.979,0-4.008,0.972-4.008,3.436
			c0,2.747,1.261,3.493,4.869,3.493c1.146,0,4.066-0.116,5.726-0.572v-6.356H107.435z"/>
		<path fill="#FFFFFF" d="M157.942,365.533c0.631,0,0.856,0.283,0.856,0.914v41.173c0,0.862-0.457,1.319-1.203,1.435
			c-4.696,0.746-8.646,1.087-12.597,1.087c-12.081,0-14.834-3.378-14.834-16.263c0-12.712,2.688-16.379,13.11-16.379
			c2.632,0,4.928,0.116,7.045,0.341v-11.394c0-0.63,0.231-0.914,0.861-0.914H157.942z M145.172,384.891
			c-5.783,0-6.529,1.544-6.529,8.936c0,6.755,0.457,8.993,6.183,8.993c1.376,0,3.782-0.115,5.5-0.399v-17.524h-5.153V384.891z"/>
		<path fill="#FFFFFF" d="M177.184,368.911c0.572-0.173,0.914,0.231,0.914,0.856v8.189h5.269c0.631,0,0.972,0.284,0.972,0.856v4.581
			c0,0.573-0.341,0.856-0.972,0.856h-5.269v15.633c0,2.464,0.861,2.921,3.377,2.921h2.349c0.688,0,0.972,0.231,0.972,0.856v4.87
			c0,0.688-0.283,0.972-0.914,1.087c-2.007,0.399-3.608,0.515-4.87,0.515c-4.927,0-9.392-0.173-9.392-7.386V384.26h-3.378
			c-0.631,0-0.914-0.284-0.914-0.856v-4.581c0-0.573,0.283-0.856,0.914-0.856h3.378v-6.362c0-0.573,0.231-0.804,0.804-0.914
			L177.184,368.911z"/>
		<path fill="#FFFFFF" d="M237.315,377.789c0.573,0,0.746,0.173,0.688,0.804l-4.928,25.824c-0.972,5.095-2.579,5.726-7.848,5.726
			c-6.588,0-7.271-0.63-8.421-5.726l-2.805-12.712l-2.806,12.712c-1.087,5.095-1.833,5.726-8.362,5.726
			c-5.327,0-6.871-0.63-7.9-5.726l-4.87-25.83c-0.115-0.63,0.116-0.804,0.688-0.804h7.275c0.341,0,0.515,0.173,0.631,0.804
			l3.95,23.366c0.23,0.972,0.398,1.087,0.913,1.087c0.631,0,0.746-0.115,0.914-1.087l5.326-22.394
			c0.174-0.63,0.457-0.804,0.914-0.804h6.697c0.399,0,0.746,0.173,0.856,0.804l5.326,22.394c0.231,0.972,0.342,1.087,0.914,1.087
			c0.515,0,0.746-0.115,0.972-1.087l3.95-23.366c0.115-0.63,0.231-0.804,0.63-0.804h7.293V377.789z"/>
		<path fill="#FFFFFF" d="M271.675,393.421v1.775c0,1.145-0.341,1.544-1.833,1.544h-17.981c0.116,5.153,1.486,6.073,6.472,6.073
			h10.139c0.572,0,0.861,0.283,0.861,0.856v4.754c0,0.63-0.283,0.862-0.804,0.914c-3.036,0.63-7.16,0.804-10.937,0.804
			c-11.567,0-14.372-3.262-14.372-16.321c0-13.111,2.805-16.321,14.372-16.321C268.87,377.499,271.617,380.651,271.675,393.421z
			 M251.803,391.189h11.342c-0.059-5.038-1.377-6.356-5.553-6.356C253.289,384.833,251.861,386.151,251.803,391.189z"/>
		<path fill="#FFFFFF" d="M296.984,378.13c0.631,0.173,0.914,0.399,0.914,1.145v4.696c0,0.572-0.342,0.856-0.972,0.856h-5.385
			c-2.979,0-4.008,0.457-4.008,2.92v21.191c0,0.63-0.289,0.914-0.861,0.914h-6.808c-0.572,0-0.861-0.284-0.861-0.914v-23.365
			c0-7.218,5.152-8.074,10.363-8.074C291.032,377.499,294.983,377.673,296.984,378.13z"/>
		<path fill="#FFFFFF" d="M311.702,365.533c0.572,0,0.856,0.341,0.856,0.914v22.336l8.189-10.422
			c0.283-0.341,0.688-0.572,1.202-0.572h7.733c1.029,0,1.029,0.457,0.515,1.087l-9.219,11.509l11.74,17.923
			c0.398,0.746,0.572,1.544-0.972,1.544h-7.218c-0.572,0-1.029-0.231-1.261-0.631l-10.711-16.894v16.604
			c0,0.63-0.284,0.914-0.856,0.914h-6.755c-0.572,0-0.856-0.284-0.856-0.914v-42.486c0-0.572,0.284-0.914,0.856-0.914H311.702z"/>
		<path fill="#FFFFFF" d="M365.478,393.421v1.775c0,1.145-0.342,1.544-1.833,1.544h-17.981c0.115,5.153,1.486,6.073,6.472,6.073
			h10.139c0.572,0,0.861,0.283,0.861,0.856v4.754c0,0.63-0.289,0.862-0.804,0.914c-3.036,0.63-7.16,0.804-10.937,0.804
			c-11.567,0-14.372-3.262-14.372-16.321c0-13.111,2.805-16.321,14.372-16.321C362.667,377.499,365.42,380.651,365.478,393.421z
			 M345.606,391.189h11.341c-0.058-5.038-1.376-6.356-5.552-6.356C347.092,384.833,345.663,386.151,345.606,391.189z"/>
	</g>
	<g>
		<path id="NEU_10_" fill="#FFFFFF" d="M417.055,424.999c0,0,44.464,0,80.356,2.938c30.931,2.278,48.604,6.64,56.297,8.999
			c2.51,0.77,5.049-0.688,5.674-3.239c0.913-3.771,1.37-8.235,1.37-12.243s-0.457-8.392-1.37-12.163
			c-0.619-2.551-3.164-4.014-5.674-3.239c-7.687,2.359-25.366,6.72-56.297,8.999c-35.898,2.938-80.356,2.938-80.356,2.938h-24.95
			c-0.532,0-0.96,0.428-0.96,0.96v5.083c0,0.532,0.428,0.96,0.96,0.96h24.95V424.999z"/>
		<path id="NEU_9_" fill="#FFFFFF" d="M507.677,398.21c-28.143,12.325-67.944,12.105-80.2,12.105h-35.366
			c-0.532,0-0.966-0.434-0.966-0.966v-5.072c0-0.532,0.434-0.966,0.966-0.966h27.379c0,0,30.584,0,52.312-7.686
			c25.17-8.901,37.124-24.135,40.849-29.774c0.851-1.284,2.452-1.822,3.91-1.324c8.045,2.73,15.378,6.599,21.647,11.567
			c1.712,1.359,1.677,3.968-0.069,5.28C533.281,385.035,523.027,391.49,507.677,398.21L507.677,398.21z"/>
		<path id="NEU_8_" fill="#FFFFFF" d="M507.677,444.779c-28.143-12.325-67.944-12.105-80.2-12.105h-35.366
			c-0.532,0-0.966,0.434-0.966,0.966v5.072c0,0.532,0.434,0.966,0.966,0.966h27.379c0,0,30.584,0,52.312,7.687
			c25.17,8.9,37.124,24.135,40.849,29.773c0.851,1.284,2.458,1.833,3.91,1.324c8.062-2.816,15.378-6.599,21.647-11.566
			c1.712-1.359,1.677-3.968-0.069-5.28C533.281,457.96,523.027,451.505,507.677,444.779L507.677,444.779z"/>
		<path id="NEU_1_" fill="#FFFFFF" d="M392.105,395.625c-0.532,0-0.966-0.434-0.966-0.966v-5.078c0-0.532,0.434-0.966,0.966-0.966
			c0,0,10.966,0,13.846,0c9.757,0,17.062-1.469,24.835-4.783c10.479-4.471,15.257-8.727,20.907-12.856
			c3.956-2.892,12.845-10.185,29.241-11.249c2.511-0.11,3.21,1.336,2.042,3.331c-10.422,18.126-26.5,25.558-36.975,28.796
			C431.803,396.25,392.105,395.625,392.105,395.625z"/>
		<path id="NEU_2_" fill="#FFFFFF" d="M392.111,447.376c-0.532,0-0.966,0.434-0.966,0.966v5.078c0,0.531,0.434,0.966,0.966,0.966
			c0,0,10.966,0,13.846,0c9.757,0,17.062,1.469,24.835,4.782c10.479,4.471,15.257,8.728,20.907,12.857
			c3.956,2.892,12.845,10.185,29.241,11.249c2.51,0.109,3.21-1.336,2.042-3.332c-10.422-18.125-26.5-25.557-36.975-28.796
			C431.809,446.751,392.111,447.376,392.111,447.376z"/>
	</g>
</g>
</svg>
