<?xml version="1.0" encoding="UTF-8" standalone="no"?>
<!-- Created with Inkscape (http://www.inkscape.org/) -->

<svg
   version="1.1"
   id="svg2"
   width="656.64801"
   height="164.82933"
   viewBox="0 0 656.64801 164.82933"
   sodipodi:docname="SSG_ohne_Claim_CMYK.ai"
   xmlns:inkscape="http://www.inkscape.org/namespaces/inkscape"
   xmlns:sodipodi="http://sodipodi.sourceforge.net/DTD/sodipodi-0.dtd"
   xmlns="http://www.w3.org/2000/svg"
   xmlns:svg="http://www.w3.org/2000/svg">
  <defs
     id="defs6">
    <clipPath
       clipPathUnits="userSpaceOnUse"
       id="clipPath16">
      <path
         d="M 0,123.622 H 492.486 V 0 H 0 Z"
         id="path14" />
    </clipPath>
  </defs>
  <sodipodi:namedview
     id="namedview4"
     pagecolor="#ffffff"
     bordercolor="#000000"
     borderopacity="0.25"
     inkscape:showpageshadow="2"
     inkscape:pageopacity="0.0"
     inkscape:pagecheckerboard="0"
     inkscape:deskcolor="#d1d1d1" />
  <g
     id="g8"
     inkscape:groupmode="layer"
     inkscape:label="SSG_ohne_Claim_CMYK"
     transform="matrix(1.3333333,0,0,-1.3333333,0,164.82933)">
    <g
       id="g10">
      <g
         id="g12"
         clip-path="url(#clipPath16)">
        <g
           id="g18"
           transform="translate(452.7963,51.5822)">
          <path
             d="m 0,0 v 9.425 h -0.514 c -2.261,0 -4.022,-0.488 -5.274,-1.467 -1.271,-0.989 -1.898,-2.338 -1.898,-4.071 0,-1.406 0.466,-2.572 1.382,-3.485 0.918,-0.916 2.072,-1.378 3.481,-1.378 0.412,0 0.852,0.076 1.318,0.232 C -1.042,-0.602 -0.541,-0.346 0,0 m -26.744,-9.152 c 2.75,-2.82 5.642,-4.898 8.668,-6.264 3.027,-1.349 6.295,-2.033 9.797,-2.033 3.065,0 5.266,0.462 6.61,1.378 1.333,0.913 1.998,2.417 1.998,4.502 0,0.203 -0.013,0.449 -0.04,0.718 -0.026,0.285 -0.06,0.708 -0.137,1.287 -1.518,-0.928 -3.053,-1.62 -4.597,-2.069 -1.546,-0.45 -3.177,-0.684 -4.901,-0.684 -5.202,0 -9.409,1.609 -12.637,4.808 -3.231,3.203 -4.838,7.397 -4.838,12.603 0,2.3 0.367,4.448 1.106,6.415 0.731,1.967 1.799,3.73 3.203,5.262 1.787,1.927 3.995,3.302 6.619,4.097 2.629,0.814 7.251,1.21 13.875,1.21 h 24.733 v -33.34 c 0,-2.814 -0.035,-5.015 -0.126,-6.611 -0.086,-1.591 -0.211,-2.671 -0.388,-3.225 -0.667,-2.083 -1.346,-3.73 -2.05,-4.924 -0.687,-1.21 -1.543,-2.331 -2.546,-3.358 -2.037,-2.028 -4.739,-3.545 -8.107,-4.536 -3.355,-0.989 -7.436,-1.492 -12.248,-1.492 -5.024,0 -9.472,0.515 -13.341,1.545 -3.87,1.023 -7.41,2.618 -10.653,4.781 z m -57.5,-13.749 v 44.979 h 21.859 v -4.552 c 1.746,1.773 3.666,3.101 5.767,3.947 2.097,0.861 4.422,1.289 6.969,1.289 5.18,0 9.096,-1.327 11.76,-3.976 2.663,-2.648 3.994,-6.529 3.994,-11.661 V -22.901 H -54.607 V 3.472 c 0,2.084 -0.368,3.602 -1.094,4.54 -0.718,0.937 -1.872,1.413 -3.442,1.413 -0.593,0 -1.145,-0.114 -1.66,-0.359 -0.514,-0.23 -1.043,-0.632 -1.582,-1.184 v -30.783 z m -22.3,51.616 c 0,1.85 0.628,3.421 1.898,4.704 1.254,1.271 2.788,1.914 4.584,1.914 1.81,0 3.342,-0.643 4.6,-1.914 1.239,-1.283 1.872,-2.854 1.872,-4.704 0,-1.867 -0.633,-3.437 -1.872,-4.721 -1.258,-1.27 -2.79,-1.916 -4.6,-1.916 -1.796,0 -3.33,0.646 -4.584,1.916 -1.27,1.284 -1.898,2.854 -1.898,4.721 m 12.954,-51.616 h -22.892 v 44.979 c 1.832,-0.95 3.717,-1.66 5.627,-2.11 1.913,-0.449 3.935,-0.682 6.045,-0.682 1.907,0 3.792,0.233 5.664,0.695 1.859,0.465 3.718,1.172 5.556,2.097 z m -38.57,22.685 c 0,-1.98 0.291,-3.367 0.865,-4.143 0.58,-0.782 1.549,-1.17 2.892,-1.17 1.004,0 1.946,0.245 2.836,0.721 0.883,0.477 1.735,1.225 2.538,2.226 v -17.681 c -1.958,-1.194 -4.094,-2.097 -6.407,-2.686 -2.309,-0.592 -4.824,-0.89 -7.549,-0.89 -2.497,0 -4.863,0.475 -7.059,1.413 -2.214,0.944 -4.336,2.383 -6.373,4.311 -1.768,1.657 -3.039,3.688 -3.817,6.07 -0.765,2.392 -1.154,5.538 -1.154,9.463 V 9.273 h -7.917 l 31.145,25.318 V 22.078 h 9.131 V 9.273 h -9.131 z m -34.975,-22.685 h -23.004 v 56.77 h 23.004 z m -65.917,56.384 c 0,1.66 0.602,3.101 1.806,4.295 1.194,1.21 2.639,1.815 4.299,1.815 1.669,0 3.091,-0.592 4.258,-1.777 1.166,-1.181 1.746,-2.625 1.746,-4.333 0,-1.797 -0.565,-3.289 -1.708,-4.474 -1.144,-1.184 -2.576,-1.777 -4.296,-1.777 -1.708,0 -3.165,0.605 -4.337,1.816 -1.181,1.194 -1.768,2.685 -1.768,4.435 m 14.021,0 c 0,1.66 0.6,3.101 1.807,4.295 1.193,1.21 2.623,1.815 4.258,1.815 1.694,0 3.13,-0.592 4.298,-1.777 1.166,-1.181 1.746,-2.625 1.746,-4.333 0,-1.797 -0.567,-3.289 -1.708,-4.474 -1.146,-1.184 -2.59,-1.777 -4.336,-1.777 -1.682,0 -3.125,0.605 -4.297,1.816 -1.181,1.194 -1.768,2.685 -1.768,4.435 m -5.92,-33.172 c 0,-1.392 0.488,-2.585 1.457,-3.587 0.969,-1.004 2.149,-1.505 3.545,-1.505 1.366,0 2.534,0.501 3.503,1.49 0.968,0.991 1.456,2.189 1.456,3.602 0,1.428 -0.488,2.645 -1.47,3.662 -0.977,1.016 -2.148,1.53 -3.489,1.53 -1.369,0 -2.55,-0.514 -3.532,-1.53 -0.982,-1.017 -1.47,-2.234 -1.47,-3.662 m -19.511,-0.45 c 0,3.187 0.619,6.196 1.833,9.05 1.233,2.858 3.019,5.412 5.339,7.703 2.34,2.261 4.964,3.987 7.904,5.157 2.927,1.181 6.07,1.774 9.437,1.774 3.291,0 6.403,-0.593 9.343,-1.774 2.94,-1.17 5.604,-2.896 7.995,-5.157 2.295,-2.266 4.068,-4.82 5.3,-7.703 1.218,-2.88 1.832,-5.889 1.832,-9.05 0,-3.177 -0.614,-6.2 -1.859,-9.105 -1.245,-2.892 -3,-5.437 -5.273,-7.626 -2.315,-2.235 -4.964,-3.96 -7.955,-5.153 -2.987,-1.211 -6.119,-1.816 -9.383,-1.816 -3.32,0 -6.459,0.592 -9.424,1.79 -2.966,1.194 -5.602,2.918 -7.917,5.179 -2.294,2.189 -4.068,4.734 -5.313,7.626 -1.24,2.905 -1.859,5.928 -1.859,9.105 m -14.46,-0.077 c 0,-1.98 0.289,-3.367 0.868,-4.143 0.58,-0.782 1.543,-1.17 2.889,-1.17 1.007,0 1.949,0.245 2.839,0.721 0.878,0.477 1.733,1.225 2.538,2.226 v -17.681 c -1.958,-1.194 -4.094,-2.097 -6.406,-2.686 -2.313,-0.592 -4.825,-0.89 -7.549,-0.89 -2.503,0 -4.864,0.475 -7.059,1.413 -2.215,0.944 -4.337,2.383 -6.374,4.311 -1.768,1.657 -3.039,3.688 -3.817,6.07 -0.766,2.392 -1.154,5.538 -1.154,9.463 V 9.273 h -7.916 l 31.141,25.318 V 22.078 h 9.134 V 9.273 h -9.134 z m -84.145,-18.992 6.256,18.992 c 2.313,-2.971 4.686,-5.262 7.15,-6.892 2.447,-1.633 4.747,-2.456 6.882,-2.456 1.095,0 2.037,0.333 2.816,1.017 0.764,0.678 1.153,1.466 1.153,2.378 0,1.452 -1.846,2.995 -5.55,4.626 -1.41,0.656 -2.512,1.172 -3.317,1.556 -4.936,2.404 -8.344,4.837 -10.229,7.28 -1.892,2.455 -2.836,5.525 -2.836,9.244 0,5.684 2.249,10.147 6.732,13.397 4.488,3.257 10.692,4.873 18.621,4.873 4.042,0 8.063,-0.346 12.032,-1.042 3.973,-0.679 7.955,-1.734 11.922,-3.134 l -6.466,-17.82 c -2.024,2.788 -4.264,4.974 -6.736,6.565 -2.486,1.596 -4.837,2.395 -7.073,2.395 -1.194,0 -2.149,-0.27 -2.867,-0.812 -0.713,-0.541 -1.068,-1.245 -1.068,-2.122 0,-1.863 2.477,-3.805 7.441,-5.836 1.417,-0.58 2.538,-1.055 3.342,-1.441 5.326,-2.3 9.017,-4.73 11.08,-7.264 2.058,-2.532 3.091,-5.735 3.091,-9.605 0,-6.004 -2.391,-10.584 -7.163,-13.756 -4.774,-3.178 -11.695,-4.774 -20.778,-4.774 -4.587,0 -8.884,0.39 -12.901,1.146 -4.007,0.77 -7.856,1.927 -11.534,3.485"
             style="fill:#0b0907;fill-opacity:1;fill-rule:nonzero;stroke:none"
             id="path20" />
        </g>
        <g
           id="g22"
           transform="translate(28.7289,101.3936)">
          <path
             d="M 0,0 V -28.598 L 44.345,-72.942 H 72.943 Z"
             style="fill:#88a9d9;fill-opacity:1;fill-rule:nonzero;stroke:none"
             id="path24" />
        </g>
        <g
           id="g26"
           transform="translate(19.8501,28.4514)">
          <path
             d="M 0,0 H 47.272 L 0,47.272 Z"
             style="fill:#0069b4;fill-opacity:1;fill-rule:nonzero;stroke:none"
             id="path28" />
        </g>
      </g>
    </g>
  </g>
</svg>
