<?xml version="1.0" encoding="UTF-8" standalone="no"?>
<!-- Created with Inkscape (http://www.inkscape.org/) -->

<svg
   version="1.1"
   id="svg2"
   width="1570.4667"
   height="415.74799"
   viewBox="0 0 1570.4667 415.74799"
   sodipodi:docname="VF_Logo_Horizontal_RGB_RED.ai"
   xmlns:inkscape="http://www.inkscape.org/namespaces/inkscape"
   xmlns:sodipodi="http://sodipodi.sourceforge.net/DTD/sodipodi-0.dtd"
   xmlns="http://www.w3.org/2000/svg"
   xmlns:svg="http://www.w3.org/2000/svg">
  <defs
     id="defs6">
    <clipPath
       clipPathUnits="userSpaceOnUse"
       id="clipPath16">
      <path
         d="M 0,311.811 H 1177.852 V 0 H 0 Z"
         id="path14" />
    </clipPath>
  </defs>
  <sodipodi:namedview
     id="namedview4"
     pagecolor="#ffffff"
     bordercolor="#000000"
     borderopacity="0.25"
     inkscape:showpageshadow="2"
     inkscape:pageopacity="0.0"
     inkscape:pagecheckerboard="0"
     inkscape:deskcolor="#d1d1d1" />
  <g
     id="g8"
     inkscape:groupmode="layer"
     inkscape:label="VF_Logo_Horizontal_RGB_RED"
     transform="matrix(1.3333333,0,0,-1.3333333,0,415.748)">
    <g
       id="g10">
      <g
         id="g12"
         clip-path="url(#clipPath16)">
        <g
           id="g18"
           transform="translate(297.639,155.9054)">
          <path
             d="m 0,0 c 0,-78.277 -63.456,-141.732 -141.732,-141.732 -78.277,0 -141.732,63.455 -141.732,141.732 0,78.277 63.455,141.732 141.732,141.732 C -63.456,141.732 0,78.277 0,0"
             style="fill:#e60000;fill-opacity:1;fill-rule:nonzero;stroke:none"
             id="path20" />
        </g>
        <g
           id="g22"
           transform="translate(157.0301,76.8737)">
          <path
             d="m 0,0 c -38.942,-0.13 -79.456,33.107 -79.633,86.475 -0.117,35.293 18.923,69.265 43.262,89.42 23.741,19.658 56.263,32.273 85.76,32.371 3.796,0.013 7.767,-0.304 10.198,-1.126 -25.791,-5.349 -46.316,-29.351 -46.226,-56.581 0.004,-0.9 0.084,-1.862 0.173,-2.31 C 56.691,137.737 76.282,111.698 76.402,75.667 76.521,39.637 48.076,0.159 0,0"
             style="fill:#ffffff;fill-opacity:1;fill-rule:nonzero;stroke:none"
             id="path24" />
        </g>
        <g
           id="g26"
           transform="translate(389.1673,97.195)">
          <path
             d="m 0,0 -43.339,103.416 h 28.322 L 12.016,34.758 38.191,103.416 H 65.225 L 23.174,0 Z"
             style="fill:#e60000;fill-opacity:1;fill-rule:nonzero;stroke:none"
             id="path28" />
        </g>
        <g
           id="g30"
           transform="translate(529.8172,149.4381)">
          <path
             d="m 0,0 c 0,4.306 -0.505,8.394 -1.503,12.27 -1.001,3.876 -2.504,7.211 -4.507,10.011 -2.005,2.8 -4.434,5.026 -7.295,6.674 -2.861,1.648 -6.221,2.479 -10.084,2.479 -3.859,0 -7.222,-0.831 -10.084,-2.479 -2.861,-1.648 -5.293,-3.874 -7.292,-6.674 -2.005,-2.8 -3.508,-6.135 -4.506,-10.011 -1.004,-3.876 -1.503,-7.964 -1.503,-12.27 0,-4.451 0.499,-8.578 1.503,-12.382 0.998,-3.798 2.467,-7.139 4.397,-10.009 1.93,-2.869 4.362,-5.133 7.295,-6.782 2.932,-1.647 6.331,-2.473 10.19,-2.473 3.863,0 7.223,0.826 10.084,2.473 2.861,1.649 5.29,3.913 7.295,6.782 2.003,2.87 3.506,6.211 4.507,10.009 C -0.505,-8.578 0,-4.451 0,0 m 26.175,-0.106 c 0,-6.726 -1.041,-13.341 -3.113,-19.847 -2.074,-6.512 -5.147,-12.337 -9.225,-17.488 -4.077,-5.148 -9.225,-9.297 -15.446,-12.443 -6.224,-3.146 -13.483,-4.719 -21.78,-4.719 -8.296,0 -15.555,1.573 -21.777,4.719 -6.221,3.146 -11.369,7.295 -15.446,12.443 -4.077,5.151 -7.156,10.976 -9.225,17.488 -2.078,6.506 -3.112,13.121 -3.112,19.847 0,6.721 1.034,13.302 3.112,19.738 2.069,6.436 5.148,12.192 9.225,17.273 4.077,5.076 9.225,9.153 15.446,12.229 6.222,3.073 13.481,4.612 21.777,4.612 8.297,0 15.519,-1.539 21.671,-4.612 6.149,-3.076 11.297,-7.153 15.449,-12.229 4.147,-5.081 7.257,-10.837 9.331,-17.273 2.072,-6.436 3.113,-13.017 3.113,-19.738"
             style="fill:#e60000;fill-opacity:1;fill-rule:nonzero;stroke:none"
             id="path32" />
        </g>
        <g
           id="g34"
           transform="translate(635.9007,177.8576)">
          <path
             d="m 0,0 c -5.12,2.008 -9.889,3.015 -14.298,3.015 -4.554,0 -8.467,-0.865 -11.74,-2.588 -3.272,-1.721 -5.977,-4.05 -8.109,-6.994 -2.134,-2.945 -3.738,-6.242 -4.803,-9.906 -1.068,-3.659 -1.601,-7.423 -1.601,-11.3 0,-4.306 0.463,-8.433 1.389,-12.382 0.926,-3.948 2.349,-7.389 4.266,-10.334 1.922,-2.942 4.343,-5.31 7.26,-7.103 2.917,-1.793 6.366,-2.689 10.349,-2.689 3.27,0 6.617,0.896 10.03,2.689 3.414,1.793 5.834,3.913 7.257,6.352 z m 2.155,-80.663 -1.082,7.937 c -2.426,-2.717 -5.635,-5.114 -9.624,-7.184 -3.993,-2.075 -8.7,-3.112 -14.116,-3.112 -7.128,0 -13.405,1.5 -18.82,4.507 -5.419,3 -9.981,7.005 -13.69,12.014 -3.706,5.002 -6.523,10.797 -8.447,17.378 -1.924,6.576 -2.886,13.442 -2.886,20.597 0,6.721 0.995,13.302 2.992,19.739 1.997,6.436 5.025,12.192 9.088,17.273 4.063,5.076 9.163,9.152 15.296,12.228 6.127,3.074 13.327,4.613 21.599,4.613 5.418,0 11.261,-0.993 17.535,-2.976 V 62.444 H 26.606 V -80.663 Z"
             style="fill:#e60000;fill-opacity:1;fill-rule:nonzero;stroke:none"
             id="path36" />
        </g>
        <g
           id="g38"
           transform="translate(737.4056,145.6842)">
          <path
             d="m 0,0 c -2.881,-0.145 -5.831,-0.396 -8.854,-0.753 -3.023,-0.356 -5.904,-0.822 -8.639,-1.394 -5.759,-1.143 -9.755,-3.11 -11.988,-5.901 -2.232,-2.789 -3.347,-5.828 -3.347,-9.116 0,-3.433 1.258,-6.189 3.778,-8.263 2.522,-2.075 6.085,-3.109 10.693,-3.109 3.452,0 6.801,0.714 10.039,2.144 3.24,1.428 6.012,3.218 8.318,5.366 z m 2.137,-48.392 -1.066,7.722 c -2.873,-3.177 -6.534,-5.672 -10.982,-7.474 -4.45,-1.801 -9.328,-2.705 -14.641,-2.705 -4.45,0 -8.725,0.75 -12.813,2.253 -4.091,1.501 -7.714,3.648 -10.873,6.437 -3.158,2.789 -5.706,6.221 -7.644,10.296 -1.938,4.077 -2.906,8.689 -2.906,13.84 0,5.151 1.001,9.691 3.015,13.623 2.01,3.931 4.735,7.258 8.181,9.977 3.447,2.717 7.394,4.937 11.844,6.652 4.451,1.715 9.116,3.003 13.996,3.862 3.447,0.714 7.215,1.249 11.309,1.609 4.09,0.354 7.499,0.677 10.228,0.967 v 1.501 c 0,5.72 -1.474,9.794 -4.423,12.231 -2.944,2.429 -7.005,3.648 -12.18,3.648 -3.024,0 -5.899,-0.363 -8.625,-1.077 -2.734,-0.714 -5.179,-1.606 -7.335,-2.679 -2.159,-1.074 -4.063,-2.145 -5.714,-3.219 -1.656,-1.073 -2.984,-2.038 -3.99,-2.897 l -8.796,18.667 c 1.143,0.999 2.894,2.215 5.257,3.648 2.359,1.427 5.217,2.822 8.581,4.183 3.36,1.358 7.15,2.498 11.372,3.433 4.216,0.928 8.758,1.394 13.623,1.394 5.718,0 10.942,-0.75 15.664,-2.253 4.718,-1.503 8.795,-3.857 12.227,-7.075 3.434,-3.213 6.116,-7.287 8.046,-12.214 1.933,-4.928 2.898,-10.896 2.898,-17.896 v -66.454 z"
             style="fill:#e60000;fill-opacity:1;fill-rule:nonzero;stroke:none"
             id="path40" />
        </g>
        <g
           id="g42"
           transform="translate(845.9935,216.7013)">
          <path
             d="m 0,0 c -0.859,0.429 -2.541,1.037 -5.042,1.824 -2.505,0.786 -5.829,1.179 -9.979,1.179 -3.719,0 -6.829,-1.11 -9.331,-3.327 -2.503,-2.217 -3.755,-5.828 -3.755,-10.831 v -4.936 h 22.314 v -21.456 h -22.1 v -81.959 h -26.604 v 81.959 h -13.732 v 21.456 h 13.732 v 5.577 c 0,6.721 0.859,12.407 2.574,17.056 1.718,4.649 4.11,8.438 7.19,11.372 3.073,2.931 6.684,5.076 10.834,6.437 4.146,1.36 8.653,2.041 13.516,2.041 6.437,0 11.763,-0.614 15.985,-1.824 4.216,-1.218 6.684,-2.041 7.401,-2.471 z"
             style="fill:#e60000;fill-opacity:1;fill-rule:nonzero;stroke:none"
             id="path44" />
        </g>
        <g
           id="g46"
           transform="translate(918.513,149.4381)">
          <path
             d="m 0,0 c 0,4.306 -0.505,8.394 -1.503,12.27 -1.002,3.876 -2.505,7.211 -4.507,10.011 -2.005,2.8 -4.433,5.026 -7.295,6.674 -2.861,1.648 -6.221,2.479 -10.084,2.479 -3.859,0 -7.222,-0.831 -10.084,-2.479 -2.861,-1.648 -5.293,-3.874 -7.293,-6.674 -2.005,-2.8 -3.507,-6.135 -4.505,-10.011 -1.004,-3.876 -1.503,-7.964 -1.503,-12.27 0,-4.451 0.499,-8.578 1.503,-12.382 0.998,-3.798 2.467,-7.139 4.397,-10.009 1.93,-2.869 4.361,-5.133 7.295,-6.782 2.932,-1.647 6.331,-2.473 10.19,-2.473 3.863,0 7.223,0.826 10.084,2.473 2.862,1.649 5.29,3.913 7.295,6.782 2.002,2.87 3.505,6.211 4.507,10.009 C -0.505,-8.578 0,-4.451 0,0 m 26.175,-0.106 c 0,-6.726 -1.041,-13.341 -3.113,-19.847 -2.075,-6.512 -5.148,-12.337 -9.225,-17.488 -4.077,-5.148 -9.225,-9.297 -15.446,-12.443 -6.225,-3.146 -13.484,-4.719 -21.78,-4.719 -8.297,0 -15.555,1.573 -21.777,4.719 -6.222,3.146 -11.369,7.295 -15.446,12.443 -4.077,5.151 -7.157,10.976 -9.225,17.488 -2.078,6.506 -3.112,13.121 -3.112,19.847 0,6.721 1.034,13.302 3.112,19.738 2.068,6.436 5.148,12.192 9.225,17.273 4.077,5.076 9.224,9.153 15.446,12.229 6.222,3.073 13.48,4.612 21.777,4.612 8.296,0 15.519,-1.539 21.671,-4.612 6.149,-3.076 11.297,-7.153 15.449,-12.229 4.147,-5.081 7.256,-10.837 9.331,-17.273 2.072,-6.436 3.113,-13.017 3.113,-19.738"
             style="fill:#e60000;fill-opacity:1;fill-rule:nonzero;stroke:none"
             id="path48" />
        </g>
        <g
           id="g50"
           transform="translate(1027.2689,97.195)">
          <path
             d="m 0,0 v 59.003 c 0,7.864 -1.646,13.943 -4.937,18.238 -3.29,4.289 -7.866,6.436 -13.731,6.436 -4.149,0 -7.976,-1.073 -11.478,-3.218 -3.505,-2.147 -6.543,-4.506 -9.119,-7.084 V 0 h -26.604 v 103.416 h 24.245 l 1.288,-8.155 c 4.147,3.433 8.829,6.08 14.053,7.94 5.219,1.857 10.476,2.788 15.769,2.788 5.436,0 10.439,-0.825 15.021,-2.468 4.573,-1.645 8.508,-4.255 11.799,-7.83 3.287,-3.575 5.825,-8.227 7.615,-13.946 1.788,-5.723 2.683,-12.589 2.683,-20.598 L 26.604,0 Z"
             style="fill:#e60000;fill-opacity:1;fill-rule:nonzero;stroke:none"
             id="path52" />
        </g>
        <g
           id="g54"
           transform="translate(1136.6439,161.3459)">
          <path
             d="m 0,0 c -0.287,3.575 -1.046,6.687 -2.265,9.333 -1.223,2.647 -2.732,4.792 -4.528,6.437 -1.799,1.643 -3.743,2.858 -5.829,3.647 -2.083,0.784 -4.205,1.18 -6.36,1.18 -4.605,0 -8.989,-1.718 -13.161,-5.148 C -36.312,12.014 -38.76,6.866 -39.477,0 Z m -40.121,-19.094 c 0.574,-8.726 3.302,-15.02 8.184,-18.882 4.881,-3.86 11.201,-5.793 18.953,-5.793 3.588,0 6.963,0.321 10.123,0.968 3.157,0.641 5.96,1.462 8.399,2.466 2.441,0.998 4.526,2.002 6.25,3.002 1.723,1.001 3.015,1.933 3.876,2.792 l 7.08,-21.673 c -1.004,-0.714 -2.612,-1.682 -4.827,-2.895 -2.22,-1.216 -4.972,-2.359 -8.26,-3.433 -3.294,-1.074 -7.156,-2 -11.587,-2.789 -4.434,-0.784 -9.3,-1.179 -14.591,-1.179 -6.723,0 -13.123,1.07 -19.202,3.218 -6.08,2.144 -11.409,5.471 -15.982,9.978 -4.582,4.503 -8.23,10.117 -10.942,16.841 -2.72,6.721 -4.078,14.729 -4.078,24.03 0,8.723 1.249,16.447 3.753,23.171 2.502,6.723 5.935,12.371 10.299,16.95 4.361,4.576 9.443,8.078 15.235,10.513 5.792,2.429 11.977,3.647 18.558,3.647 6.579,0 12.658,-1.073 18.238,-3.218 5.578,-2.144 10.405,-5.471 14.482,-9.975 4.077,-4.506 7.296,-10.337 9.654,-17.488 2.36,-7.153 3.539,-15.664 3.539,-25.531 v -4.72 z"
             style="fill:#e60000;fill-opacity:1;fill-rule:nonzero;stroke:none"
             id="path56" />
        </g>
      </g>
    </g>
  </g>
</svg>
